<svg width="40" height="40" viewBox="0 0 40 40" fill="none" xmlns="http://www.w3.org/2000/svg">
<path fill-rule="evenodd" clip-rule="evenodd" d="M4.5 8C4.5 6.067 6.067 4.5 8 4.5H24C25.933 4.5 27.5 6.067 27.5 8V28C27.5 30.6108 29.4111 32.5 31.5 32.5C33.5889 32.5 35.5 30.6108 35.5 28V17C35.5 16.7239 35.2761 16.5 35 16.5H31V13.5H35C36.933 13.5 38.5 15.067 38.5 17V28C38.5 32.0166 35.4862 35.5 31.5 35.5H30H22H20H12C7.85787 35.5 4.5 32.1421 4.5 28V8ZM24.5 8V28V28.5C24.5 29.9879 24.9639 31.3666 25.7547 32.5H22H20H12C9.51472 32.5 7.5 30.4853 7.5 28V8C7.5 7.72386 7.72386 7.5 8 7.5H24C24.2761 7.5 24.5 7.72386 24.5 8ZM11 13.5C11 12.6716 11.6716 12 12.5 12H19.5C20.3284 12 21 12.6716 21 13.5C21 14.3284 20.3284 15 19.5 15H12.5C11.6716 15 11 14.3284 11 13.5ZM12.5 19C11.6716 19 11 19.6716 11 20.5C11 21.3284 11.6716 22 12.5 22H19.5C20.3284 22 21 21.3284 21 20.5C21 19.6716 20.3284 19 19.5 19H12.5Z" fill="#017DE9"/>
</svg>
