<svg id="Layer_2" data-name="Layer 2" xmlns="http://www.w3.org/2000/svg" viewBox="0 0 200 200"><defs><style>.cls-1{fill:#ef501d;}.cls-2{fill:#9f5bff;}.cls-3{fill:#fc7264;}.cls-4{fill:#06cf80;}.cls-5{fill:#16c0f6;}</style></defs><path class="cls-1" d="M68,68A16,16,0,0,1,84,52h16V84H84A16,16,0,0,1,68,68Z"/><path class="cls-2" d="M68,100A16,16,0,0,1,84,84h16v32H84A16,16,0,0,1,68,100Z"/><path class="cls-3" d="M132,68a16,16,0,0,0-16-16H100V84h16A16,16,0,0,0,132,68Z"/><path class="cls-4" d="M68,132a16,16,0,0,1,16-16h16v16a16,16,0,0,1-32,0Z"/><circle class="cls-5" cx="116" cy="100" r="16"/></svg>