<svg width="60" height="60" viewBox="0 0 60 60" fill="none" xmlns="http://www.w3.org/2000/svg">
<path d="M20.0026 33.3896L16.2623 34.1961C15.1753 34.4299 14.7818 35.7741 15.5649 36.5572L19.3987 40.3909" stroke="#1B92F5" stroke-width="2" stroke-miterlimit="10"/>
<path d="M26.0455 20.4935C26.0416 20.4935 22.0558 19.4299 19.4026 19.4805C16.7494 19.5312 10.0948 20.6805 9.69351 32.2909C15.6974 32.2909 18.7987 32.1896 18.7987 32.1896C18.7987 32.1896 22.0208 26.1857 26.0455 20.4935Z" stroke="#1B92F5" stroke-width="2" stroke-miterlimit="10"/>
<path d="M43.8078 16.1649L37.8468 10.2039" stroke="#1B92F5" stroke-width="2" stroke-miterlimit="10"/>
<path d="M36.6039 26.4467C38.3038 26.4467 39.6818 25.0687 39.6818 23.3688C39.6818 21.6689 38.3038 20.2909 36.6039 20.2909C34.904 20.2909 33.526 21.6689 33.526 23.3688C33.526 25.0687 34.904 26.4467 36.6039 26.4467Z" stroke="#1B92F5" stroke-width="2" stroke-miterlimit="10"/>
<path d="M30.2727 32.7779C31.9726 32.7779 33.3507 31.3999 33.3507 29.7C33.3507 28.0001 31.9726 26.6221 30.2727 26.6221C28.5728 26.6221 27.1948 28.0001 27.1948 29.7C27.1948 31.3999 28.5728 32.7779 30.2727 32.7779Z" stroke="#1B92F5" stroke-width="2" stroke-miterlimit="10"/>
<path d="M25.726 34.2467L20.5597 29.0804" stroke="#1B92F5" stroke-width="2" stroke-miterlimit="10"/>
<path d="M20.0026 33.3896L16.2623 34.1961C15.1753 34.4299 14.7818 35.7741 15.5649 36.5572L19.3987 40.3909" stroke="#1B92F5" stroke-width="2" stroke-miterlimit="10"/>
<path d="M26.0455 20.4935C26.0416 20.4935 22.0558 19.4299 19.4026 19.4805C16.7494 19.5312 10.0948 20.6805 9.69351 32.2909C15.6974 32.2909 18.7987 32.1896 18.7987 32.1896C18.7987 32.1896 22.0208 26.1857 26.0455 20.4935Z" stroke="#1B92F5" stroke-width="2" stroke-miterlimit="10"/>
<path d="M43.8078 16.1649L37.8468 10.2039" stroke="#1B92F5" stroke-width="2" stroke-miterlimit="10"/>
<path d="M25.726 34.2467L20.5597 29.0804" stroke="#1B92F5" stroke-width="2" stroke-miterlimit="10"/>
<path d="M20.0026 33.3896L16.2623 34.1961C15.1753 34.4299 14.7818 35.7741 15.5649 36.5572L19.3987 40.3909" stroke="#1B92F5" stroke-width="2" stroke-miterlimit="10"/>
<path d="M26.0455 20.4935C26.0416 20.4935 22.0558 19.4299 19.4026 19.4805C16.7494 19.5312 10.0948 20.6805 9.69351 32.2909C15.6974 32.2909 18.7987 32.1896 18.7987 32.1896C18.7987 32.1896 22.0208 26.1857 26.0455 20.4935Z" stroke="#1B92F5" stroke-width="2" stroke-miterlimit="10"/>
<path d="M43.8078 16.1649L37.8468 10.2039" stroke="#1B92F5" stroke-width="2" stroke-miterlimit="10"/>
<path d="M25.726 34.2467L20.5597 29.0804" stroke="#1B92F5" stroke-width="2" stroke-miterlimit="10"/>
<path d="M20.0026 33.3896L16.2623 34.1961C15.1753 34.4299 14.7818 35.7741 15.5649 36.5572L19.4883 40.4806" stroke="#1B92F5" stroke-width="2" stroke-miterlimit="10"/>
<path d="M26.0455 20.4935C26.0416 20.4935 22.0558 19.4299 19.4026 19.4805C16.7494 19.5312 10.0948 20.6805 9.69351 32.2909C15.6974 32.2909 18.7987 32.1896 18.7987 32.1896C18.7987 32.1896 22.0208 26.1857 26.0455 20.4935Z" stroke="#1B92F5" stroke-width="2" stroke-miterlimit="10"/>
<path d="M43.8078 16.1649L37.8468 10.2039" stroke="#1B92F5" stroke-width="2" stroke-miterlimit="10"/>
<path d="M25.726 34.2467L20.5597 29.0804" stroke="#1B92F5" stroke-width="2" stroke-miterlimit="10"/>
<path d="M20.0026 33.3896L16.2623 34.1961C15.1753 34.4299 14.7818 35.7741 15.5649 36.5572L19.3987 40.3909" stroke="#1B92F5" stroke-width="2" stroke-miterlimit="10"/>
<path d="M26.0455 20.4935C26.0416 20.4935 22.0558 19.4299 19.4026 19.4805C16.7494 19.5312 10.0948 20.6805 9.69351 32.2909C15.6974 32.2909 18.7987 32.1896 18.7987 32.1896C18.7987 32.1896 22.0208 26.1857 26.0455 20.4935Z" stroke="#1B92F5" stroke-width="2" stroke-miterlimit="10"/>
<path d="M43.8078 16.1649L37.8468 10.2039" stroke="#1B92F5" stroke-width="2" stroke-miterlimit="10"/>
<path d="M25.726 34.2467L20.5597 29.0804" stroke="#1B92F5" stroke-width="2" stroke-miterlimit="10"/>
<path d="M20.0026 33.3896L16.2623 34.1961C15.1753 34.4299 14.7818 35.7741 15.5649 36.5572L19.3987 40.3909" stroke="#1B92F5" stroke-width="2" stroke-miterlimit="10"/>
<path d="M26.0455 20.4935C26.0416 20.4935 22.0558 19.4299 19.4026 19.4805C16.7494 19.5312 10.0948 20.6805 9.69351 32.2909C15.6974 32.2909 18.7987 32.1896 18.7987 32.1896C18.7987 32.1896 22.0208 26.1857 26.0455 20.4935Z" stroke="#1B92F5" stroke-width="2" stroke-miterlimit="10"/>
<path d="M43.8078 16.1649L37.8468 10.2039" stroke="#1B92F5" stroke-width="2" stroke-miterlimit="10"/>
<path d="M25.726 34.2467L20.5597 29.0804" stroke="#1B92F5" stroke-width="2" stroke-miterlimit="10"/>
<path d="M20.0026 33.3896L16.2623 34.1961C15.1753 34.4299 14.7818 35.7741 15.5649 36.5572L19.3987 40.3909" stroke="#1B92F5" stroke-width="2" stroke-miterlimit="10"/>
<path d="M26.0455 20.4935C26.0416 20.4935 22.0558 19.4299 19.4026 19.4805C16.7494 19.5312 10.0948 20.6805 9.69351 32.2909C15.6974 32.2909 18.7987 32.1896 18.7987 32.1896C18.7987 32.1896 22.0208 26.1857 26.0455 20.4935Z" stroke="#1B92F5" stroke-width="2" stroke-miterlimit="10"/>
<path d="M43.8078 16.1649L37.8468 10.2039" stroke="#1B92F5" stroke-width="2" stroke-miterlimit="10"/>
<path d="M25.726 34.2467L20.5597 29.0804" stroke="#1B92F5" stroke-width="2" stroke-miterlimit="10"/>
<path d="M27.787 41.1701C27.787 41.1701 46.9753 30.8883 49.2662 24.0935C51.5572 17.2987 49.4026 11.2441 49.0636 10.9091L48.974 10.8195C48.974 10.8195 42.6701 8.41945 35.8753 10.7065C29.0805 12.9935 18.8026 32.1896 18.8026 32.1896L27.787 41.1701Z" stroke="#1B92F5" stroke-width="2" stroke-miterlimit="10"/>
<path d="M20.0026 33.3896L16.2623 34.1961C15.1753 34.4299 14.7818 35.7741 15.5649 36.5572L19.4883 40.4806" stroke="#1B92F5" stroke-width="2" stroke-miterlimit="10"/>
<path d="M26.5831 39.9702L25.7766 43.7104C25.5429 44.7975 24.1987 45.191 23.4156 44.4078L15.5688 36.5611C14.7818 35.7741 15.1792 34.4338 16.2662 34.2L20.0065 33.3936" stroke="#1B92F5" stroke-width="2" stroke-miterlimit="10"/>
<path d="M26.0455 20.4935C26.0416 20.4935 22.0558 19.4299 19.4026 19.4805C16.7494 19.5312 10.0948 20.6805 9.69351 32.2909C15.6974 32.2909 18.7987 32.1896 18.7987 32.1896C18.7987 32.1896 22.0208 26.1857 26.0455 20.4935Z" stroke="#1B92F5" stroke-width="2" stroke-miterlimit="10"/>
<path d="M39.4831 33.9312C39.4831 33.935 40.5468 37.9208 40.4961 40.574C40.4455 43.2273 39.2961 49.8818 27.6857 50.2831C27.6857 44.2792 27.787 41.1779 27.787 41.1779C27.787 41.1779 33.7909 37.9519 39.4831 33.9312Z" stroke="#1B92F5" stroke-width="2" stroke-miterlimit="10"/>
<path d="M49.7688 22.126L43.8078 16.1649" stroke="#1B92F5" stroke-width="2" stroke-miterlimit="10"/>
<path d="M30.8961 39.4168L20.5597 29.0804" stroke="#1B92F5" stroke-width="2" stroke-miterlimit="10"/>
</svg>
