<svg width="60" height="60" viewBox="0 0 60 60" fill="none" xmlns="http://www.w3.org/2000/svg">
<path d="M30.408 32.704C30.44 32.884 30.452 33.068 30.452 33.256C30.452 35.304 28.792 36.964 26.744 36.964C24.696 36.964 23.036 35.304 23.036 33.256C23.036 31.208 24.696 29.548 26.744 29.548C26.932 29.548 27.116 29.56 27.296 29.592" stroke="#1B92F5" stroke-width="2" stroke-miterlimit="10"/>
<path d="M41.164 21.948C43.608 25.064 45.068 28.988 45.068 33.256C45.068 43.376 36.864 51.58 26.744 51.58C16.624 51.58 8.41998 43.376 8.41998 33.256C8.41998 23.136 16.624 14.932 26.744 14.932C31.012 14.932 34.936 16.392 38.052 18.836" stroke="#1B92F5" stroke-width="2" stroke-miterlimit="10"/>
<path d="M37.624 25.4881C39.188 27.6761 40.112 30.3601 40.112 33.2561C40.112 40.6361 34.128 46.6201 26.744 46.6201C19.364 46.6201 13.38 40.6361 13.38 33.2561C13.38 25.8761 19.364 19.8921 26.744 19.8921C29.64 19.8921 32.32 20.8121 34.508 22.3801" stroke="#1B92F5" stroke-width="2" stroke-miterlimit="10"/>
<path d="M34.048 29.0641C34.76 30.2961 35.168 31.7281 35.168 33.2561C35.168 37.9081 31.396 41.6761 26.744 41.6761C22.096 41.6761 18.324 37.9081 18.324 33.2561C18.324 28.6041 22.096 24.8361 26.744 24.8361C28.272 24.8361 29.704 25.2401 30.936 25.9521" stroke="#1B92F5" stroke-width="2" stroke-miterlimit="10"/>
<path d="M26.744 33.2559L49.404 10.5959" stroke="#1B92F5" stroke-width="2" stroke-miterlimit="10"/>
<path d="M41.124 18.876L46.352 20.544L51.58 15.312L46.356 13.644L44.688 8.42004L39.456 13.652L41.124 18.876Z" stroke="#1B92F5" stroke-width="2" stroke-miterlimit="10"/>
</svg>
