<svg width="60" height="60" viewBox="0 0 60 60" fill="none" xmlns="http://www.w3.org/2000/svg">
<path d="M49.9519 10.0442H30V17.3689H32.6377C33.4325 16.1533 34.8078 15.3507 36.3662 15.3507C38.8286 15.3507 40.8273 17.3494 40.8273 19.8117C40.8273 22.2741 38.8286 24.2689 36.3662 24.2689C34.8039 24.2689 33.4325 23.4663 32.6338 22.2507H30V30H37.7455V32.6416C36.5338 33.4364 35.7312 34.8117 35.7312 36.3702C35.7312 38.8325 37.726 40.8273 40.1883 40.8273C42.6506 40.8273 44.6455 38.8325 44.6455 36.3702C44.6455 34.8117 43.8429 33.4364 42.6312 32.6416V30H49.9519V10.0442Z" stroke="white" stroke-width="2" stroke-miterlimit="10" stroke-linecap="round" stroke-linejoin="round"/>
<path d="M10.0442 49.9558H30V42.6312H27.3584C26.5636 43.8468 25.1883 44.6493 23.6299 44.6493C21.1675 44.6493 19.1727 42.6506 19.1727 40.1883C19.1727 37.7299 21.1675 35.7312 23.6299 35.7312C25.1922 35.7312 26.5636 36.5338 27.3584 37.7493H30V30H22.2545V27.3584C23.4662 26.5636 24.2688 25.1883 24.2688 23.6299C24.2688 21.1675 22.274 19.1727 19.8117 19.1727C17.3494 19.1727 15.3507 21.1675 15.3507 23.6299C15.3507 25.1922 16.1533 26.5675 17.3688 27.3623V30H10.0442V49.9558V49.9558Z" stroke="white" stroke-width="2" stroke-miterlimit="10" stroke-linecap="round" stroke-linejoin="round"/>
<path d="M10.0442 30H17.3688V27.3624C16.1533 26.5676 15.3507 25.1922 15.3507 23.6299C15.3507 21.1676 17.3455 19.1728 19.8078 19.1728C22.2701 19.1728 24.2649 21.1676 24.2649 23.6299C24.2649 25.1883 23.4623 26.5637 22.2507 27.3585V30H30V22.2507H32.6338C33.4325 23.4663 34.8039 24.2689 36.3662 24.2689C38.8286 24.2689 40.8273 22.2741 40.8273 19.8117C40.8273 17.3494 38.8325 15.3507 36.3701 15.3507C34.8117 15.3507 33.4364 16.1533 32.6416 17.3689H30V10.0442H10.0442V30Z" stroke="white" stroke-width="2" stroke-miterlimit="10" stroke-linecap="round" stroke-linejoin="round"/>
<path d="M30 49.9558V42.6312H27.3584C26.5636 43.8468 25.1883 44.6494 23.6299 44.6494C21.1675 44.6494 19.1727 42.6507 19.1727 40.1883C19.1727 37.7299 21.1675 35.7312 23.6299 35.7312C25.1922 35.7312 26.5636 36.5338 27.3584 37.7494H30V30H37.7455V32.6416C36.5338 33.4364 35.7312 34.8117 35.7312 36.3701C35.7312 38.8325 37.726 40.8273 40.1883 40.8273C42.6506 40.8273 44.6454 38.8325 44.6454 36.3701C44.6454 34.8117 43.8429 33.4364 42.6312 32.6416V30H49.9519V49.9558H30Z" stroke="white" stroke-width="2" stroke-miterlimit="10" stroke-linecap="round" stroke-linejoin="round"/>
</svg>
