<svg width="60" height="60" viewBox="0 0 60 60" fill="none" xmlns="http://www.w3.org/2000/svg">
<path d="M47.0104 13.5118H12.9896V37.43H47.0104V13.5118Z" stroke="white" stroke-width="2" stroke-miterlimit="10" stroke-linecap="round" stroke-linejoin="round"/>
<path d="M50.6377 13.5118H9.36237" stroke="white" stroke-width="2" stroke-miterlimit="10" stroke-linecap="round" stroke-linejoin="round"/>
<path d="M30 49.6014V37.4299" stroke="white" stroke-width="2" stroke-miterlimit="10" stroke-linecap="round" stroke-linejoin="round"/>
<path d="M30 13.5118V8.84424" stroke="white" stroke-width="2" stroke-miterlimit="10" stroke-linecap="round" stroke-linejoin="round"/>
<path d="M30.0001 44.0807L18.2806 51.156" stroke="white" stroke-width="2" stroke-miterlimit="10" stroke-linecap="round" stroke-linejoin="round"/>
<path d="M30 44.0807L41.7195 51.156" stroke="white" stroke-width="2" stroke-miterlimit="10" stroke-linecap="round" stroke-linejoin="round"/>
<path d="M28.239 23.8091C29.4117 23.8091 30.3624 22.8585 30.3624 21.6858C30.3624 20.513 29.4117 19.5624 28.239 19.5624C27.0663 19.5624 26.1156 20.513 26.1156 21.6858C26.1156 22.8585 27.0663 23.8091 28.239 23.8091Z" stroke="white" stroke-width="2" stroke-miterlimit="10" stroke-linecap="round" stroke-linejoin="round"/>
<path d="M20.6649 31.3792C21.8377 31.3792 22.7883 30.4285 22.7883 29.2558C22.7883 28.0831 21.8377 27.1324 20.6649 27.1324C19.4922 27.1324 18.5416 28.0831 18.5416 29.2558C18.5416 30.4285 19.4922 31.3792 20.6649 31.3792Z" stroke="white" stroke-width="2" stroke-miterlimit="10" stroke-linecap="round" stroke-linejoin="round"/>
<path d="M35.8091 31.3792C36.9818 31.3792 37.9325 30.4285 37.9325 29.2558C37.9325 28.0831 36.9818 27.1324 35.8091 27.1324C34.6364 27.1324 33.6857 28.0831 33.6857 29.2558C33.6857 30.4285 34.6364 31.3792 35.8091 31.3792Z" stroke="white" stroke-width="2" stroke-miterlimit="10" stroke-linecap="round" stroke-linejoin="round"/>
<path d="M22.1649 27.7558L26.7351 23.1857" stroke="white" stroke-width="2" stroke-miterlimit="10" stroke-linecap="round" stroke-linejoin="round"/>
<path d="M34.3091 27.7558L29.739 23.1857" stroke="white" stroke-width="2" stroke-miterlimit="10" stroke-linecap="round" stroke-linejoin="round"/>
<path d="M37.2819 27.7832L41.4585 23.6066" stroke="white" stroke-width="2" stroke-miterlimit="10" stroke-linecap="round" stroke-linejoin="round"/>
<path d="M41.4585 27.0196V23.6066H38.0455" stroke="white" stroke-width="2" stroke-miterlimit="10" stroke-linecap="round" stroke-linejoin="round"/>
</svg>
