<svg width="64" height="64" viewBox="0 0 64 64" fill="none" xmlns="http://www.w3.org/2000/svg">
<circle opacity="0.5" cx="36" cy="28" r="12.5" stroke="#017DE9" stroke-width="3"/>
<path fill-rule="evenodd" clip-rule="evenodd" d="M40.4998 21C39.6714 21 38.9998 21.6716 38.9998 22.5V31.5C38.9998 32.3284 39.6714 33 40.4998 33C41.3282 33 41.9998 32.3284 41.9998 31.5V22.5C41.9998 21.6716 41.3282 21 40.4998 21ZM33.9998 25.5C33.9998 24.6716 34.6714 24 35.4998 24C36.3282 24 36.9998 24.6716 36.9998 25.5V31.5C36.9998 32.3284 36.3282 33 35.4998 33C34.6714 33 33.9998 32.3284 33.9998 31.5V25.5ZM30.4998 27C29.6714 27 28.9998 27.6716 28.9998 28.5V31.5C28.9998 32.3284 29.6714 33 30.4998 33C31.3282 33 31.9998 32.3284 31.9998 31.5V28.5C31.9998 27.6716 31.3282 27 30.4998 27ZM22.2425 40L24.3638 42.1213L20.462 46.0231C21.2869 47.8618 20.9445 50.0969 19.4348 51.6066L16.6063 54.435C14.6537 56.3876 11.4879 56.3876 9.53527 54.435C7.58265 52.4824 7.58265 49.3166 9.53527 47.364L12.3637 44.5355C14.0183 42.8809 16.544 42.6284 18.4646 43.7779L22.2425 40ZM14.485 52.3137L17.3134 49.4853C18.0945 48.7042 18.0945 47.4379 17.3134 46.6569C16.5324 45.8758 15.2661 45.8758 14.485 46.6569L11.6566 49.4853C10.8755 50.2663 10.8755 51.5327 11.6566 52.3137C12.4376 53.0948 13.704 53.0948 14.485 52.3137Z" fill="#017DE9"/>
<path fill-rule="evenodd" clip-rule="evenodd" d="M19.8686 19.9396C19.1395 19.2105 17.9134 19.3902 17.5183 20.3426C16.54 22.7012 16 25.2876 16 28C16 39.0457 24.9543 48 36 48C47.0457 48 56 39.0457 56 28C56 16.9543 47.0457 8 36 8C32.3092 8 28.8519 8.99974 25.8841 10.7432C25.0732 11.2196 24.9833 12.3264 25.6484 12.9914V12.9914C26.163 13.506 26.9663 13.5778 27.5986 13.2177C30.0767 11.8063 32.9442 11 36 11C45.3888 11 53 18.6112 53 28C53 37.3888 45.3888 45 36 45C26.6112 45 19 37.3888 19 28C19 25.7767 19.4268 23.6532 20.2029 21.7067C20.4446 21.1005 20.3301 20.4011 19.8686 19.9396V19.9396Z" fill="#017DE9"/>
<circle cx="22" cy="16" r="2" fill="#017DE9"/>
</svg>
