<svg width="64" height="64" viewBox="0 0 64 64" fill="none" xmlns="http://www.w3.org/2000/svg">
<g opacity="0.5">
<mask id="path-1-inside-1" fill="white">
<path fill-rule="evenodd" clip-rule="evenodd" d="M48.125 15C48.9534 15 49.625 14.3284 49.625 13.5C49.625 12.6716 48.9534 12 48.125 12C47.2966 12 46.625 12.6716 46.625 13.5C46.625 14.3284 47.2966 15 48.125 15ZM18 17.5C18 18.8807 16.8807 20 15.5 20C14.1193 20 13 18.8807 13 17.5C13 16.1193 14.1193 15 15.5 15C16.8807 15 18 16.1193 18 17.5ZM34 32.5C34 33.8807 32.8807 35 31.5 35C30.1193 35 29 33.8807 29 32.5C29 31.1193 30.1193 30 31.5 30C32.8807 30 34 31.1193 34 32.5Z"/>
</mask>
<path fill-rule="evenodd" clip-rule="evenodd" d="M48.125 15C48.9534 15 49.625 14.3284 49.625 13.5C49.625 12.6716 48.9534 12 48.125 12C47.2966 12 46.625 12.6716 46.625 13.5C46.625 14.3284 47.2966 15 48.125 15ZM18 17.5C18 18.8807 16.8807 20 15.5 20C14.1193 20 13 18.8807 13 17.5C13 16.1193 14.1193 15 15.5 15C16.8807 15 18 16.1193 18 17.5ZM34 32.5C34 33.8807 32.8807 35 31.5 35C30.1193 35 29 33.8807 29 32.5C29 31.1193 30.1193 30 31.5 30C32.8807 30 34 31.1193 34 32.5Z" fill="#017DE9"/>
<path d="M46.625 13.5C46.625 12.6716 47.2966 12 48.125 12V18C50.6103 18 52.625 15.9853 52.625 13.5H46.625ZM48.125 15C47.2966 15 46.625 14.3284 46.625 13.5H52.625C52.625 11.0147 50.6103 9 48.125 9V15ZM49.625 13.5C49.625 14.3284 48.9534 15 48.125 15V9C45.6397 9 43.625 11.0147 43.625 13.5H49.625ZM48.125 12C48.9534 12 49.625 12.6716 49.625 13.5H43.625C43.625 15.9853 45.6397 18 48.125 18V12ZM15.5 23C18.5376 23 21 20.5376 21 17.5H15C15 17.2239 15.2239 17 15.5 17V23ZM10 17.5C10 20.5376 12.4624 23 15.5 23V17C15.7761 17 16 17.2239 16 17.5H10ZM15.5 12C12.4624 12 10 14.4624 10 17.5H16C16 17.7761 15.7761 18 15.5 18V12ZM21 17.5C21 14.4624 18.5376 12 15.5 12V18C15.2239 18 15 17.7761 15 17.5H21ZM31.5 38C34.5376 38 37 35.5376 37 32.5H31C31 32.2239 31.2239 32 31.5 32V38ZM26 32.5C26 35.5376 28.4624 38 31.5 38V32C31.7761 32 32 32.2239 32 32.5H26ZM31.5 27C28.4624 27 26 29.4624 26 32.5H32C32 32.7761 31.7761 33 31.5 33V27ZM37 32.5C37 29.4624 34.5376 27 31.5 27V33C31.2239 33 31 32.7761 31 32.5H37Z" fill="#017DE9" mask="url(#path-1-inside-1)"/>
</g>
<path fill-rule="evenodd" clip-rule="evenodd" d="M24.564 11.9987L43.1195 11.2091C42.7995 11.9065 42.6211 12.6824 42.6211 13.5C42.6211 13.9927 42.6859 14.4703 42.8074 14.9246L32.694 17.0315C31.883 17.2005 31.3625 17.9949 31.5315 18.8059C31.7005 19.617 32.4949 20.1374 33.3059 19.9685L41.8202 18.1947L40.505 20.1648C39.952 20.9931 39.8461 22.0417 40.2223 22.9638L43.843 31.8384C44.6202 33.7433 46.683 34.1102 48.1207 33.3137C49.5584 34.1102 51.6212 33.7433 52.3984 31.8384L56.0191 22.9638C56.3953 22.0417 56.2894 20.9931 55.7365 20.1648L52.9928 16.0552C53.3941 15.2917 53.6211 14.4224 53.6211 13.5C53.6211 10.4625 51.1587 8.00004 48.1211 8.00004C48.0951 8.00004 48.0691 8.00022 48.0432 8.00058C48.0079 7.9996 47.9723 7.99986 47.9365 8.00138L24.4364 9.00138C23.6088 9.0366 22.9664 9.73612 23.0016 10.5638C23.0368 11.3915 23.7363 12.0339 24.564 11.9987ZM46.2037 15.1043C46.6623 15.6519 47.351 16 48.1211 16C49.5018 16 50.6211 14.8808 50.6211 13.5C50.6211 12.1193 49.5018 11 48.1211 11C46.7404 11 45.6211 12.1193 45.6211 13.5C45.6211 14.0724 45.8134 14.5998 46.137 15.0212C46.1602 15.0481 46.1824 15.0758 46.2037 15.1043ZM49.6207 18.7931C50.0597 18.669 50.4764 18.4917 50.8634 18.2687L53.2414 21.8306L49.6207 30.7051V18.7931ZM45.3782 18.2683C45.7651 18.4914 46.1818 18.6687 46.6207 18.7929L46.6207 30.7051L43 21.8306L45.3782 18.2683ZM20 17.5C20 19.9853 17.9853 22 15.5 22C13.0147 22 11 19.9853 11 17.5C11 15.0148 13.0147 13 15.5 13C17.9853 13 20 15.0148 20 17.5ZM17.863 24.6202L23.3439 30.1009C23.7315 28.7788 24.4467 27.5324 25.4896 26.4896C26.2357 25.7435 27.086 25.1651 27.9936 24.7544L22.6126 19.8858C21.8647 22.1164 20.0968 23.8792 17.863 24.6202ZM27.8653 36.628C28.7609 37.4166 29.9149 37.9187 31.1826 37.9909C31.2876 37.9968 31.3934 37.9999 31.4999 37.9999C31.6044 37.9999 31.7082 37.997 31.8113 37.9912C32.3727 37.9596 32.9302 37.8423 33.4625 37.6394C34.9183 37.0831 36.0771 35.9262 36.6359 34.4716C36.8437 33.9295 36.9625 33.361 36.9925 32.7888C36.9974 32.6931 36.9999 32.5968 36.9999 32.4999C36.9999 32.4086 36.9977 32.3178 36.9933 32.2276C36.9641 31.6345 36.8393 31.0452 36.619 30.4848C36.3507 29.8023 35.9408 29.1626 35.3891 28.6109C35.3588 28.5806 35.3283 28.5508 35.2975 28.5214C33.1434 26.4634 29.7285 26.4933 27.6109 28.6109C25.463 30.7588 25.463 34.2412 27.6109 36.3891C27.6938 36.4719 27.7786 36.5516 27.8653 36.628ZM23.1623 34.1619C23.2751 34.7307 23.4446 35.2791 23.6647 35.8009C23.9232 36.4151 24.2571 37.0051 24.6664 37.5568L23.5 43H22C20.3431 43 19 44.3432 19 46V53V53V54.5C19 55.3284 19.6716 56 20.5 56C20.7198 56 20.9285 55.9527 21.1165 55.8678C21.3958 55.9538 21.6925 56 22 56H41C42.6569 56 44 54.6569 44 53V46C44 44.3432 42.6569 43 41 43H39.5L38.3336 37.5567C38.7831 36.9509 39.1416 36.2989 39.4093 35.6193C39.7501 34.7558 39.9536 33.823 39.9929 32.8479C40.0021 32.6226 40.0024 32.3969 39.9937 32.1715C39.9552 31.157 39.7388 30.1881 39.375 29.2949C38.9708 28.3007 38.3707 27.3675 37.5747 26.5545C37.5278 26.5066 37.4804 26.4593 37.4324 26.4125C35.9301 24.9482 33.8877 24.0353 31.6324 24.0009L22.8632 16.0669C22.1944 12.6103 19.152 10 15.5 10C11.3579 10 8 13.3579 8 17.5C8 21.0605 10.481 24.0415 13.8086 24.8085L23.1623 34.1619ZM22 53H25.9892C25.9928 53 25.9964 53 26 53C26.0036 53 26.0072 53 26.0108 53H41V46H22V53V53ZM26.5681 43L27.2413 39.8586C27.5904 40.0609 27.9507 40.2363 28.3194 40.3848C29.1974 40.7393 30.148 40.9514 31.1428 40.9925C31.3858 41.0027 31.6291 41.0025 31.872 40.9919C32.8357 40.9504 33.7577 40.7484 34.6122 40.4121C35.0047 40.2579 35.3881 40.0734 35.7588 39.8585L36.4319 43H26.5681Z" fill="#017DE9"/>
</svg>
