<svg width="64" height="64" viewBox="0 0 64 64" fill="none" xmlns="http://www.w3.org/2000/svg">
<path opacity="0.5" fill-rule="evenodd" clip-rule="evenodd" d="M53 11H46.9194V8H53C54.6569 8 56 9.34315 56 11V17.0811H53V11ZM17.0815 8V11H11V17.0811H8V11C8 9.34315 9.34315 8 11 8H17.0815ZM8 46.9189H11V53H17.0815V56H11C9.34315 56 8 54.6569 8 53V46.9189ZM46.9194 56V53H53V46.9189H56V53C56 54.6569 54.6569 56 53 56H46.9194ZM12.5 34C11.6716 34 11 34.6716 11 35.5C11 36.3284 11.6716 37 12.5 37H51.5C52.3284 37 53 36.3284 53 35.5C53 34.6716 52.3284 34 51.5 34H12.5Z" fill="#017DE9"/>
<path fill-rule="evenodd" clip-rule="evenodd" d="M42.0001 31V27.9783C40.1734 27.8683 38.5897 27.4567 37.1824 26.7223C36.14 26.1784 35.2325 25.4773 34.4148 24.6478C31.0477 27.5626 26.8256 29.3765 22.0001 29.4939V30.965C22.0004 30.9766 22.0005 30.9883 22.0005 31C22.0005 31.8284 21.3289 32.5 20.5005 32.5C19.6721 32.5 19.0005 31.8284 19.0005 31H19.0001V24.4194C19.0001 16.9339 24.8176 12 32.0001 12C39.1826 12 45.0001 16.9339 45.0001 24.4194V30.8468C45.0052 30.8972 45.0078 30.9483 45.0078 31C45.0078 31.8284 44.3362 32.5 43.5078 32.5C42.6794 32.5 42.0078 31.8284 42.0078 31H42.0001ZM23.7913 38.8158C25.6649 41.9389 28.777 44 32.0001 44C34.5475 44 37.0161 42.7237 38.9195 40.5116C39.4373 39.9099 39.9009 39.2517 40.3016 38.5523L40.3039 38.5523C40.5551 38.0755 41.0555 37.7505 41.6318 37.7505C42.4603 37.7505 43.1318 38.4221 43.1318 39.2505C43.1318 39.5587 43.0389 39.8452 42.8794 40.0835L42.8811 40.0845C42.3848 40.9446 41.8117 41.753 41.1727 42.4924C43.0524 43.0454 44.684 43.7997 46.0121 44.583C47.7341 45.5985 49.0392 46.7188 49.7001 47.6C50.1971 48.2627 50.0628 49.2029 49.4001 49.7C48.7373 50.1971 47.7971 50.0627 47.3001 49.4C46.961 48.9479 46.0161 48.0682 44.4881 47.167C42.9911 46.2842 41.0229 45.4343 38.7059 44.9709C38.6306 44.9558 38.5578 44.9354 38.4878 44.91C36.5787 46.2214 34.3633 47 32.0001 47C29.6731 47 27.4893 46.2652 25.6003 45.0107C23.3673 45.4819 21.4671 46.3089 20.0121 47.167C18.4841 48.0682 17.5392 48.9479 17.2001 49.4C16.703 50.0627 15.7628 50.1971 15.1001 49.7C14.4373 49.2029 14.303 48.2627 14.8001 47.6C15.461 46.7188 16.7661 45.5985 18.4881 44.583C19.7105 43.862 21.1901 43.1656 22.8835 42.6282C22.2177 41.8733 21.6222 41.0422 21.1093 40.1522C20.9202 39.9012 20.8081 39.5889 20.8081 39.2505C20.8081 38.4221 21.4797 37.7505 22.3081 37.7505C22.9857 37.7505 23.5583 38.1997 23.7444 38.8166L23.7913 38.8158ZM33.4422 21.4567C33.4514 21.4471 33.4608 21.4377 33.4703 21.4284C35.2189 19.6691 35.6465 18.8525 37.0109 16.1243C35.5598 15.3975 33.8591 15 32.0001 15C26.241 15 22.0001 18.8149 22.0001 24.4194V26.4929C26.5245 26.3635 30.4201 24.4807 33.4422 21.4567ZM38.5703 24.0627C37.8436 23.6834 37.1808 23.181 36.5474 22.5379C37.829 21.0941 38.447 19.9522 39.4709 17.9119C41.0627 19.5452 42.0001 21.7845 42.0001 24.4194V24.9716C40.6113 24.8682 39.5058 24.5508 38.5703 24.0627Z" fill="#017DE9"/>
</svg>
