<svg width="64" height="64" viewBox="0 0 64 64" fill="none" xmlns="http://www.w3.org/2000/svg">
<path opacity="0.5" fill-rule="evenodd" clip-rule="evenodd" d="M38.5659 17.3125C39.0392 18.218 39.7817 18.9605 40.6872 19.4338L39.5607 20.5604C39.2794 20.8417 38.8978 20.9997 38.5 20.9997H34V17.9997H37.8787L38.5659 17.3125ZM45.2289 27.4997H44.4542L40.3321 30.2478C40.0856 30.4121 39.7961 30.4997 39.5 30.4997H33C32.1716 30.4997 31.5 29.8281 31.5 28.9997C31.5 28.1713 32.1716 27.4997 33 27.4997H39.0458L43.1679 24.7516C43.4144 24.5874 43.7039 24.4997 44 24.4997H45.2289C45.0802 24.9732 45 25.4771 45 25.9997C45 26.5223 45.0802 27.0262 45.2289 27.4997ZM45.2289 37.4997H43.8887L39.7285 35.1885C39.5056 35.0647 39.2549 34.9997 39 34.9997H33C32.1716 34.9997 31.5 35.6713 31.5 36.4997C31.5 37.3281 32.1716 37.9997 33 37.9997H38.6113L42.7715 40.311C42.9944 40.4348 43.2451 40.4997 43.5 40.4997H45.2289C45.0802 40.0262 45 39.5223 45 38.9997C45 38.4771 45.0802 37.9732 45.2289 37.4997ZM40.3688 44.7472C39.5019 45.2847 38.8116 46.0799 38.4047 47.0258L37.8787 46.4997H33.5C32.6716 46.4997 32 45.8281 32 44.9997C32 44.1713 32.6716 43.4997 33.5 43.4997H38.5C38.8978 43.4997 39.2794 43.6578 39.5607 43.9391L40.3688 44.7472Z" fill="#017DE9"/>
<path fill-rule="evenodd" clip-rule="evenodd" d="M45 15C45 16.1046 44.1046 17 43 17C41.8954 17 41 16.1046 41 15C41 13.8954 41.8954 13 43 13C44.1046 13 45 13.8954 45 15ZM48 15C48 17.7614 45.7614 20 43 20C40.2386 20 38 17.7614 38 15C38 12.2386 40.2386 10 43 10C45.7614 10 48 12.2386 48 15ZM52 26C52 27.1046 51.1046 28 50 28C48.8954 28 48 27.1046 48 26C48 24.8954 48.8954 24 50 24C51.1046 24 52 24.8954 52 26ZM55 26C55 28.7614 52.7614 31 50 31C47.2386 31 45 28.7614 45 26C45 23.2386 47.2386 21 50 21C52.7614 21 55 23.2386 55 26ZM50 41C51.1046 41 52 40.1046 52 39C52 37.8954 51.1046 37 50 37C48.8954 37 48 37.8954 48 39C48 40.1046 48.8954 41 50 41ZM50 44C52.7614 44 55 41.7614 55 39C55 36.2386 52.7614 34 50 34C47.2386 34 45 36.2386 45 39C45 41.7614 47.2386 44 50 44ZM45 49C45 50.1046 44.1046 51 43 51C41.8954 51 41 50.1046 41 49C41 47.8954 41.8954 47 43 47C44.1046 47 45 47.8954 45 49ZM48 49C48 51.7614 45.7614 54 43 54C40.2386 54 38 51.7614 38 49C38 46.2386 40.2386 44 43 44C45.7614 44 48 46.2386 48 49Z" fill="#017DE9"/>
<path fill-rule="evenodd" clip-rule="evenodd" d="M18.5283 13.1351C19.6805 10.1319 22.5913 8 26 8C30.0796 8 33.446 11.0537 33.9381 15C33.979 15.3276 34 15.6613 34 16V22.5H31V16C31 15.6548 30.965 15.3178 30.8984 14.9923C30.4322 12.7139 28.4162 11 26 11C25.8393 11 25.6803 11.0076 25.5234 11.0224C25.074 11.065 24.6416 11.167 24.2343 11.3207C22.3442 12.0343 21 13.8602 21 16C21 18.7614 23.2386 21 26 21C26.8284 21 27.5 21.6716 27.5 22.5C27.5 23.3284 26.8284 24 26 24C21.7194 24 18.2241 20.6381 18.0104 16.4106C16.239 17.1797 15 18.9474 15 21C15 21.5062 15.0743 21.9897 15.2105 22.4429L15.7599 24.2706L14.3373 25.5427C12.2848 27.3782 11 30.0371 11 33C11 35.8447 12.1839 38.4079 14.0942 40.2326L15.1182 41.2107L15.0139 42.623C15.0047 42.747 15 42.8727 15 43C15 45.0526 16.239 46.8203 18.0104 47.5894C18.2241 43.3619 21.7194 40 26 40C26.8284 40 27.5 40.6716 27.5 41.5C27.5 42.3284 26.8284 43 26 43C23.2386 43 21 45.2386 21 48C21 50.0609 22.2469 51.8307 24.0274 52.5959C24.6332 52.8561 25.3002 53 26 53C28.7614 53 31 50.7614 31 48V37C31 34.2386 28.7614 32 26 32C23.2386 32 21 34.2386 21 37C21 37.8284 20.3284 38.5 19.5 38.5C18.6716 38.5 18 37.8284 18 37C18 32.5817 21.5817 29 26 29C27.8919 29 29.6304 29.6567 31 30.7546V29H34V33V37V48C34 52.4183 30.4183 56 26 56C22.5913 56 19.6805 53.8681 18.5283 50.8649C14.813 50.174 12 46.9155 12 43C12 42.7988 12.0074 42.5994 12.022 42.4019C9.5438 40.0348 8 36.6977 8 33C8 29.1478 9.6755 25.687 12.3375 23.3065C12.118 22.5761 12 21.8019 12 21C12 17.0845 14.813 13.826 18.5283 13.1351Z" fill="#017DE9"/>
<circle cx="14.3906" cy="24.8711" r="1.5" fill="#017DE9"/>
<circle cx="13.6543" cy="40.8906" r="1.5" fill="#017DE9"/>
<circle cx="32.5" cy="22.5" r="1.5" fill="#017DE9"/>
<circle cx="32.5" cy="29" r="1.5" fill="#017DE9"/>
</svg>
