<svg width="64" height="64" viewBox="0 0 64 64" fill="none" xmlns="http://www.w3.org/2000/svg">
<path fill-rule="evenodd" clip-rule="evenodd" d="M48.9827 25.4682L49.0832 27.008L50.3943 27.8217C51.9649 28.7966 53 30.5287 53 32.5C53 35.5376 50.5376 38 47.5 38H41.5C39.5 38 38.5 39 38.5 41V45C38.5 45.3978 38.658 45.7794 38.9393 46.0607L41.3165 48.4379C41.1127 48.9178 41 49.4457 41 50C41 52.2091 42.7909 54 45 54C47.2091 54 49 52.2091 49 50C49 47.7909 47.2091 46 45 46C44.4457 46 43.9178 46.1127 43.4379 46.3165L41.5 44.3787V41H47.5C52.1944 41 56 37.1944 56 32.5C56 29.4482 54.3917 26.772 51.9763 25.2728C51.602 19.5367 46.8308 15 41 15C40.2574 15 39.5319 15.0736 38.8306 15.2139C36.8391 10.9525 32.5143 8 27.5 8C20.8513 8 15.4149 13.1909 15.0227 19.7411C10.9133 21.3353 8 25.3274 8 30C8 36.0751 12.9249 41 19 41H22.5V44.3787L20.5621 46.3165C20.0822 46.1127 19.5543 46 19 46C16.7909 46 15 47.7909 15 50C15 52.2091 16.7909 54 19 54C21.2091 54 23 52.2091 23 50C23 49.4457 22.8873 48.9178 22.6835 48.4379L25.0607 46.0607C25.342 45.7794 25.5 45.3978 25.5 45V41C25.5 39 24.5 38 22.5 38H19C14.5817 38 11 34.4183 11 30C11 26.6065 13.1141 23.6994 16.1078 22.5379L17.9022 21.8418L18.0173 19.9204C18.3153 14.945 22.448 11 27.5 11C31.3063 11 34.596 13.2385 36.1127 16.484L37.1098 18.6175L39.419 18.1556C39.9277 18.0539 40.456 18 41 18C45.2394 18 48.7106 21.2993 48.9827 25.4682ZM19 51C19.5523 51 20 50.5523 20 50C20 49.4477 19.5523 49 19 49C18.4477 49 18 49.4477 18 50C18 50.5523 18.4477 51 19 51ZM32 53C32.5523 53 33 52.5523 33 52C33 51.4477 32.5523 51 32 51C31.4477 51 31 51.4477 31 52C31 52.5523 31.4477 53 32 53ZM32 56C34.2091 56 36 54.2091 36 52C36 50.3213 34.9659 48.8841 33.5 48.2908V38C33.5 37.1716 32.8284 36.5 32 36.5C31.1716 36.5 30.5 37.1716 30.5 38V48.2908C29.0341 48.8841 28 50.3213 28 52C28 54.2091 29.7909 56 32 56ZM45 51C44.4477 51 44 50.5523 44 50C44 49.4477 44.4477 49 45 49C45.5523 49 46 49.4477 46 50C46 50.5523 45.5523 51 45 51Z" fill="#017DE9"/>
<path opacity="0.5" fill-rule="evenodd" clip-rule="evenodd" d="M22.1177 31.5004C24.5918 28.7361 28.1824 27 32.1805 27C36.1787 27 39.7693 28.7361 42.2434 31.5004C42.7959 32.1177 43.7442 32.1702 44.3615 31.6177C44.9787 31.0652 45.0313 30.1169 44.4788 29.4996C41.4597 26.1264 37.0674 24 32.1805 24C27.2937 24 22.9014 26.1264 19.8823 29.4996C19.3298 30.1169 19.3824 31.0652 19.9996 31.6177C20.6169 32.1702 21.5652 32.1177 22.1177 31.5004ZM26.3467 35.7862C27.7241 34.0841 29.8253 33 32.1807 33C34.5361 33 36.6372 34.0841 38.0146 35.7862C38.5357 36.4302 39.4803 36.5298 40.1242 36.0087C40.7682 35.4876 40.8678 34.5431 40.3467 33.8991C38.4242 31.5233 35.4798 30 32.1807 30C28.8816 30 25.9371 31.5233 24.0146 33.8991C23.4935 34.5431 23.5931 35.4876 24.2371 36.0087C24.8811 36.5298 25.8256 36.4302 26.3467 35.7862Z" fill="#017DE9"/>
</svg>
