<svg width="64" height="64" viewBox="0 0 64 64" fill="none" xmlns="http://www.w3.org/2000/svg">
<path fill-rule="evenodd" clip-rule="evenodd" d="M28 8C26.3431 8 25 9.34315 25 11V15.5C25 16.3284 25.6716 17 26.5 17C27.3284 17 28 16.3284 28 15.5V11H36V12.1949V14.3165L38.0003 15.0235C38.603 15.2365 39.1912 15.4808 39.7628 15.7545L41.6781 16.6717L43.1797 15.1701L44.0279 14.322L49.6846 19.9788L48.8342 20.8292L47.3333 22.33L48.2491 24.2449C48.5213 24.8141 48.7645 25.3997 48.9765 25.9997L49.6835 28H51.8051H53V36H51.8051H49.6835L48.9765 38.0003C48.7635 38.603 48.5192 39.1912 48.2455 39.7628L47.3283 41.6781L48.8299 43.1797L49.671 44.0208L44.0142 49.6775L43.1708 48.8342L41.67 47.3333L39.7551 48.2491C39.1859 48.5213 38.6003 48.7645 38.0003 48.9765L36 49.6835V51.8051V53H28V48.5C28 47.6716 27.3284 47 26.5 47C25.6716 47 25 47.6716 25 48.5V53C25 54.6569 26.3431 56 28 56H36C37.6082 56 38.9208 54.7346 38.9965 53.1452C38.9988 53.0987 38.9999 53.052 39 53.005L39 53V51.8051C39.701 51.5573 40.3849 51.2734 41.0495 50.9555L41.8929 51.7989L41.8991 51.8051C41.9322 51.8379 41.9658 51.8699 42 51.9009C43.1775 52.9694 44.999 52.9353 46.1355 51.7989L51.7923 46.1421C52.9309 45.0034 52.9629 43.1773 51.8883 42C51.8613 41.9704 51.8335 41.9411 51.8051 41.9123L51.7923 41.8995L50.9512 41.0584C51.2708 40.391 51.5562 39.7041 51.8051 39H53C53.0444 39 53.0886 38.999 53.1326 38.9971C54.7279 38.9277 56 37.6124 56 36V28C56 26.3918 54.7346 25.0792 53.1452 25.0035C53.0987 25.0012 53.052 25.0001 53.005 25L53 25H51.8051C51.5573 24.299 51.2734 23.6151 50.9555 22.9505L51.8051 22.1009L51.8059 22.1C51.8387 22.0673 51.8706 22.0339 51.9015 22C52.9766 20.8227 52.9447 18.9962 51.8059 17.8574L46.1491 12.2006C45.0082 11.0597 43.177 11.0299 42 12.1111C41.9703 12.1383 41.9411 12.1663 41.9123 12.1949L41.9065 12.2006L41.0584 13.0488C40.391 12.7292 39.7041 12.4438 39 12.1949V11L39 10.9903C38.9999 10.9492 38.9989 10.9082 38.9971 10.8674C38.9277 9.27208 37.6124 8 36 8H28ZM20 18C20 19.1046 19.1046 20 18 20C16.8954 20 16 19.1046 16 18C16 16.8954 16.8954 16 18 16C19.1046 16 20 16.8954 20 18ZM23 18C23 18.8383 22.7937 19.6284 22.4291 20.3223C22.452 20.3404 22.4745 20.3593 22.4965 20.3789L24.0226 21.7354C24.3933 21.4474 24.7787 21.18 25.1771 20.9344C26.4876 20.1264 27.9381 19.5533 29.4638 19.2498C31.9856 18.7482 34.5995 19.0056 36.9749 19.9896C39.3503 20.9735 41.3807 22.6398 42.8091 24.7776C44.2376 26.9154 45 29.4289 45 32C45 34.5712 44.2376 37.0846 42.8091 39.2224C41.3807 41.3603 39.3503 43.0265 36.9749 44.0104C34.5994 44.9944 31.9856 45.2518 29.4638 44.7502C27.9381 44.4467 26.4875 43.8736 25.1771 43.0656C24.7751 42.8178 24.3863 42.5478 24.0125 42.2567L22.5034 43.6149C22.4792 43.6368 22.4544 43.6577 22.4291 43.6777C22.7937 44.3716 23 45.1617 23 46C23 48.7614 20.7614 51 18 51C15.2386 51 13 48.7614 13 46C13 43.2386 15.2386 41 18 41C18.8382 41 19.6283 41.2063 20.3222 41.5708C20.3741 41.5051 20.4322 41.443 20.4966 41.3851L22.9966 39.1351C23.5478 38.639 24.3655 38.627 24.9284 39.0716L24.9289 39.0711L24.9332 39.0753C24.9974 39.1265 25.0582 39.1835 25.1149 39.2466C25.1249 39.2576 25.1346 39.2687 25.1441 39.2799C26.9187 40.9518 29.3046 41.982 31.931 41.9998C31.9735 42.0001 32.0161 42.0001 32.0586 41.9998C37.5545 41.9683 42 37.5033 42 32C42 26.5006 37.5608 22.038 32.0702 22.0002C32.0238 21.9999 31.9774 21.9999 31.931 22.0002C29.3046 22.018 26.9188 23.0482 25.1442 24.72C25.081 24.7944 25.0108 24.8626 24.9344 24.9235C24.9326 24.9253 24.9308 24.9271 24.9289 24.9289L24.9283 24.9283C24.6729 25.1298 24.3505 25.25 24 25.25C23.5221 25.25 23.0963 25.0265 22.8216 24.6783C22.7985 24.66 22.7758 24.6409 22.7535 24.6211L20.5035 22.6211C20.4364 22.5615 20.3759 22.4972 20.3221 22.4292C19.6283 22.7937 18.8382 23 18 23C15.2386 23 13 20.7614 13 18C13 15.2386 15.2386 13 18 13C20.7614 13 23 15.2386 23 18ZM18 48C19.1046 48 20 47.1046 20 46C20 44.8954 19.1046 44 18 44C16.8954 44 16 44.8954 16 46C16 47.1046 16.8954 48 18 48ZM15 32C15 33.1046 14.1046 34 13 34C11.8954 34 11 33.1046 11 32C11 30.8954 11.8954 30 13 30C14.1046 30 15 30.8954 15 32ZM18 32C18 34.7614 15.7614 37 13 37C10.2386 37 8 34.7614 8 32C8 29.2386 10.2386 27 13 27C15.7614 27 18 29.2386 18 32Z" fill="#017DE9"/>
<path opacity="0.5" fill-rule="evenodd" clip-rule="evenodd" d="M35 32C35 33.6569 33.6569 35 32 35C30.3431 35 29 33.6569 29 32C29 30.3431 30.3431 29 32 29C33.6569 29 35 30.3431 35 32ZM38 32C38 35.3137 35.3137 38 32 38C29.3876 38 27.1651 36.3304 26.3414 34H21C20.1716 34 19.5 33.3284 19.5 32.5C19.5 31.6716 20.1716 31 21 31H26.083C26.559 28.1623 29.027 26 32 26C35.3137 26 38 28.6863 38 32Z" fill="#017DE9"/>
</svg>
