<svg width="64" height="64" viewBox="0 0 64 64" fill="none" xmlns="http://www.w3.org/2000/svg">
<rect opacity="0.5" x="23.5" y="23.5" width="17" height="17" rx="1.5" stroke="#017DE9" stroke-width="3"/>
<path fill-rule="evenodd" clip-rule="evenodd" d="M24.5 13H21.5L21.5 10C21.5 9.17157 20.8284 8.5 20 8.5C19.1716 8.5 18.5 9.17157 18.5 10L18.5 13H16C14.3431 13 13 14.3431 13 16V18.5L10 18.5C9.17157 18.5 8.5 19.1716 8.5 20C8.5 20.8284 9.17157 21.5 10 21.5L13 21.5V24.5L10 24.5C9.17157 24.5 8.5 25.1716 8.5 26C8.5 26.8284 9.17157 27.5 10 27.5L13 27.5V30.5L10 30.5C9.17157 30.5 8.5 31.1716 8.5 32C8.5 32.8284 9.17157 33.5 10 33.5L13 33.5V36.5L10 36.5C9.17157 36.5 8.5 37.1716 8.5 38C8.5 38.8284 9.17157 39.5 10 39.5L13 39.5V42.5H10C9.17157 42.5 8.5 43.1716 8.5 44C8.5 44.8284 9.17157 45.5 10 45.5H13H14C15.5 45.5 16 45 16 43.5V43V16H44C45 16 45.5 15.5 45.5 14.5V13V10C45.5 9.17157 44.8284 8.5 44 8.5C43.1716 8.5 42.5 9.17157 42.5 10V13H39.5V10C39.5 9.17157 38.8284 8.5 38 8.5C37.1716 8.5 36.5 9.17157 36.5 10V13H33.5V10C33.5 9.17157 32.8284 8.5 32 8.5C31.1716 8.5 30.5 9.17157 30.5 10V13H27.5V10C27.5 9.17157 26.8284 8.5 26 8.5C25.1716 8.5 24.5 9.17157 24.5 10V13ZM49.5 18.5H51L54 18.5C54.8284 18.5 55.5 19.1716 55.5 20C55.5 20.8284 54.8284 21.5 54 21.5L51 21.5V24.5L54 24.5C54.8284 24.5 55.5 25.1716 55.5 26C55.5 26.8284 54.8284 27.5 54 27.5L51 27.5V30.5L54 30.5C54.8284 30.5 55.5 31.1716 55.5 32C55.5 32.8284 54.8284 33.5 54 33.5L51 33.5V36.5L54 36.5C54.8284 36.5 55.5 37.1716 55.5 38C55.5 38.8284 54.8284 39.5 54 39.5L51 39.5V42.5H54C54.8284 42.5 55.5 43.1716 55.5 44C55.5 44.8284 54.8284 45.5 54 45.5H51V48C51 49.6569 49.6569 51 48 51H45.5V54C45.5 54.8284 44.8284 55.5 44 55.5C43.1716 55.5 42.5 54.8284 42.5 54V51H39.5V54C39.5 54.8284 38.8284 55.5 38 55.5C37.1716 55.5 36.5 54.8284 36.5 54V51H33.5V54C33.5 54.8284 32.8284 55.5 32 55.5C31.1716 55.5 30.5 54.8284 30.5 54V51H27.5V54C27.5 54.8284 26.8284 55.5 26 55.5C25.1716 55.5 24.5 54.8284 24.5 54V51H21.5L21.5 54C21.5 54.8284 20.8284 55.5 20 55.5C19.1716 55.5 18.5 54.8284 18.5 54L18.5 51L18.5 50L18.5 49.9979C18.5009 48.4995 19.5005 48 20.5 48H48V20C48 19 48.5 18.5 49.5 18.5Z" fill="#017DE9"/>
<circle cx="49.5" cy="20" r="1.5" fill="#017DE9"/>
<circle cx="14.5" cy="44" r="1.5" fill="#017DE9"/>
<circle cx="44" cy="14.5" r="1.5" fill="#017DE9"/>
</svg>
