<svg width="64" height="64" viewBox="0 0 64 64" fill="none" xmlns="http://www.w3.org/2000/svg">
<path opacity="0.5" fill-rule="evenodd" clip-rule="evenodd" d="M41.1927 28.4653C40.9071 28.7509 40.6632 29.0625 40.4611 29.3925C39.5975 28.369 38.6619 27.3486 37.6572 26.344C36.3929 25.0796 35.1038 23.9246 33.8146 22.8849C34.1768 22.6731 34.5181 22.4119 34.8288 22.1013C35.2588 21.6713 35.5941 21.1824 35.8347 20.6606C37.1669 21.7429 38.4889 22.933 39.7785 24.2226C40.8268 25.2709 41.8093 26.3405 42.7216 27.4197C42.1667 27.6626 41.6469 28.0111 41.1927 28.4653ZM27.4817 15.3293C26.7973 16.1335 26.4085 17.1032 26.3153 18.0955C25.6803 17.7983 25.0592 17.5372 24.4558 17.3131C20.1963 15.731 17.9649 16.3377 17.1511 17.1516C16.3372 17.9654 15.7305 20.1968 17.3126 24.4563C17.8835 25.9933 18.6941 27.6446 19.7296 29.3487C21.041 27.6274 22.5352 25.9121 24.1947 24.2502C24.1951 24.2504 24.1955 24.2506 24.1959 24.2509C24.4701 23.952 24.8639 23.7647 25.3014 23.7647C26.1298 23.7647 26.8014 24.4363 26.8014 25.2647C26.8014 25.698 26.6177 26.0884 26.3239 26.3622C26.324 26.3625 26.3242 26.3628 26.3244 26.3631C24.4741 28.2154 22.8585 30.1204 21.4961 32.0009C21.9926 32.6862 22.5228 33.3748 23.0857 34.0629C22.7343 34.2716 22.4031 34.527 22.1008 34.8292C21.6543 35.2758 21.3099 35.7858 21.0676 36.3302C20.6026 35.7728 20.1564 35.2132 19.7296 34.653C18.6941 36.3571 17.8835 38.0084 17.3126 39.5454C15.7305 43.8049 16.3373 46.0362 17.1511 46.8501C17.965 47.6639 20.1963 48.2707 24.4558 46.6886C28.445 45.2069 33.2046 42.1103 37.6572 37.6577C38.6619 36.653 39.5975 35.6327 40.4612 34.6092C40.6632 34.9391 40.9071 35.2507 41.1927 35.5363C41.6469 35.9905 42.1667 36.3391 42.7217 36.582C41.8093 37.6611 40.8268 38.7307 39.7785 39.779C30.406 49.1516 19.3256 53.2672 15.0298 48.9714C11.8909 45.8325 13.2429 39.0714 17.8552 32.0009C13.2429 24.9303 11.8909 18.1691 15.0298 15.0303C17.4885 12.5715 22.17 12.8683 27.4817 15.3293ZM46.688 39.5454C46.3763 38.7059 45.993 37.8324 45.5406 36.9348C46.518 36.7747 47.457 36.3236 48.218 35.5815C51.0887 41.2761 51.5734 46.3688 48.9709 48.9714C46.5756 51.3667 42.0709 51.1468 36.9291 48.8586L36.9439 48.8491C36.3405 48.6549 35.9039 48.0889 35.9039 47.421C35.9039 46.5925 36.5755 45.921 37.4039 45.921C37.6718 45.921 37.9233 45.9912 38.141 46.1143C38.6181 46.3268 39.0866 46.5183 39.5449 46.6885C43.8044 48.2706 46.0357 47.6639 46.8496 46.8501C47.6634 46.0362 48.2701 43.8049 46.688 39.5454ZM48.9709 15.0303C51.5735 17.6328 51.0887 22.7256 48.2181 28.4201C47.4571 27.678 46.518 27.227 45.5406 27.0669C45.993 26.1693 46.3763 25.2957 46.6881 24.4563C48.2702 20.1968 47.6635 17.9655 46.8496 17.1516C46.0952 16.3972 44.123 15.8208 40.4466 17.0005L40.4456 16.9975C40.3226 17.0301 40.1934 17.0474 40.0602 17.0474C39.2318 17.0474 38.5602 16.3759 38.5602 15.5474C38.5602 14.8405 39.0492 14.2478 39.7075 14.0891C43.6652 12.863 47.0187 13.078 48.9709 15.0303Z" fill="#017DE9"/>
<path fill-rule="evenodd" clip-rule="evenodd" d="M53 32C53 43.598 43.598 53 32 53C20.402 53 11 43.598 11 32C11 20.402 20.402 11 32 11C43.598 11 53 20.402 53 32ZM56 32C56 45.2548 45.2548 56 32 56C18.7452 56 8 45.2548 8 32C8 18.7452 18.7452 8 32 8C45.2548 8 56 18.7452 56 32ZM27.0502 36.9498C27.8313 37.7308 27.8313 38.9972 27.0502 39.7782C26.2692 40.5593 25.0028 40.5593 24.2218 39.7782C23.4407 38.9972 23.4407 37.7308 24.2218 36.9498C25.0028 36.1688 26.2692 36.1688 27.0502 36.9498ZM29.1715 34.8285C31.1242 36.7811 31.1242 39.9469 29.1715 41.8995C27.2189 43.8522 24.0531 43.8522 22.1005 41.8995C20.1479 39.9469 20.1479 36.7811 22.1005 34.8285C24.0531 32.8759 27.2189 32.8759 29.1715 34.8285ZM46.142 30.5858C45.361 29.8047 44.0946 29.8047 43.3136 30.5858C42.5325 31.3668 42.5325 32.6332 43.3136 33.4142C44.0946 34.1953 45.361 34.1953 46.142 33.4142C46.9231 32.6332 46.9231 31.3668 46.142 30.5858ZM48.2633 35.5355C50.216 33.5829 50.216 30.4171 48.2633 28.4645C46.3107 26.5118 43.1449 26.5118 41.1923 28.4645C39.2397 30.4171 39.2397 33.5829 41.1923 35.5355C43.1449 37.4882 46.3107 37.4882 48.2633 35.5355ZM32.707 17.1507C33.488 17.9318 33.488 19.1981 32.707 19.9792C31.9259 20.7602 30.6596 20.7602 29.8785 19.9792C29.0975 19.1981 29.0975 17.9318 29.8785 17.1507C30.6596 16.3697 31.9259 16.3697 32.707 17.1507ZM34.8283 15.0294C36.7809 16.982 36.7809 20.1479 34.8283 22.1005C32.8757 24.0531 29.7098 24.0531 27.7572 22.1005C25.8046 20.1479 25.8046 16.982 27.7572 15.0294C29.7098 13.0768 32.8757 13.0768 34.8283 15.0294Z" fill="#017DE9"/>
</svg>
