<svg width="64" height="64" viewBox="0 0 64 64" fill="none" xmlns="http://www.w3.org/2000/svg">
<path fill-rule="evenodd" clip-rule="evenodd" d="M14 16H50V37.5C50 38.3284 50.6716 39 51.5 39C52.3284 39 53 38.3284 53 37.5V16C53 14.3431 51.6569 13 50 13H14C12.3431 13 11 14.3431 11 16V37.5C11 38.3284 11.6716 39 12.5 39C13.3284 39 14 38.3284 14 37.5V27H45.5C46.3284 27 47 26.3284 47 25.5C47 24.6716 46.3284 24 45.5 24H14V16ZM50 42H14H11C9.34315 42 8 43.3431 8 45V47C8 50.3137 10.6863 53 14 53H50C53.3137 53 56 50.3137 56 47V45C56 43.3431 54.6569 42 53 42H50ZM50 45H14H11V47C11 48.6569 12.3431 50 14 50H50C51.6569 50 53 48.6569 53 47V45H50Z" fill="#017DE9"/>
<path opacity="0.5" fill-rule="evenodd" clip-rule="evenodd" d="M17 20.5C17 19.6716 17.6716 19 18.5 19C19.3284 19 20 19.6716 20 20.5C20 21.3284 19.3284 22 18.5 22C17.6716 22 17 21.3284 17 20.5ZM22 20.5C22 19.6716 22.6716 19 23.5 19C24.3284 19 25 19.6716 25 20.5C25 21.3284 24.3284 22 23.5 22C22.6716 22 22 21.3284 22 20.5ZM28.5 19C27.6716 19 27 19.6716 27 20.5C27 21.3284 27.6716 22 28.5 22C29.3284 22 30 21.3284 30 20.5C30 19.6716 29.3284 19 28.5 19ZM18 31.5C18 30.6716 18.6716 30 19.5 30H40.5C41.3284 30 42 30.6716 42 31.5C42 32.3284 41.3284 33 40.5 33H19.5C18.6716 33 18 32.3284 18 31.5ZM19.5 35C18.6716 35 18 35.6716 18 36.5C18 37.3284 18.6716 38 19.5 38H31.5C32.3284 38 33 37.3284 33 36.5C33 35.6716 32.3284 35 31.5 35H19.5Z" fill="#017DE9"/>
</svg>
