<svg width="64" height="64" viewBox="0 0 64 64" fill="none" xmlns="http://www.w3.org/2000/svg">
<circle cx="32" cy="32" r="3.5" stroke="#017DE9" stroke-width="3"/>
<path opacity="0.5" fill-rule="evenodd" clip-rule="evenodd" d="M33.4998 21C33.4998 20.1716 32.8283 19.5 31.9998 19.5C31.1714 19.5 30.4998 20.1716 30.4998 21V24.5C30.4998 25.3284 31.1714 26 31.9998 26C32.8283 26 33.4998 25.3284 33.4998 24.5V21ZM33.4998 40C33.4998 39.1716 32.8283 38.5 31.9998 38.5C31.1714 38.5 30.4998 39.1716 30.4998 40V43.5C30.4998 44.3284 31.1714 45 31.9998 45C32.8283 45 33.4998 44.3284 33.4998 43.5V40ZM26.3415 35.8292C26.712 36.5701 26.4116 37.4712 25.6707 37.8416L22.6707 39.3416C21.9297 39.7121 21.0287 39.4118 20.6582 38.6708C20.2877 37.9299 20.5881 37.0288 21.329 36.6584L24.329 35.1584C25.07 34.7879 25.971 35.0882 26.3415 35.8292ZM38.329 37.8416C37.5881 37.4712 37.2877 36.5701 37.6582 35.8292C38.0287 35.0882 38.9297 34.7879 39.6707 35.1584L42.6707 36.6584C43.4116 37.0288 43.712 37.9299 43.3415 38.6708C42.971 39.4118 42.07 39.7121 41.329 39.3416L38.329 37.8416ZM26.3415 28.1708C26.712 27.4299 26.4116 26.5288 25.6707 26.1584L22.6707 24.6584C21.9297 24.2879 21.0287 24.5882 20.6582 25.3292C20.2877 26.0701 20.5881 26.9712 21.329 27.3416L24.329 28.8416C25.07 29.2121 25.971 28.9118 26.3415 28.1708ZM38.329 26.1584C37.5881 26.5288 37.2877 27.4299 37.6582 28.1708C38.0287 28.9118 38.9297 29.2121 39.6707 28.8416L42.6707 27.3416C43.4116 26.9712 43.712 26.0701 43.3415 25.3292C42.971 24.5882 42.07 24.2879 41.329 24.6584L38.329 26.1584Z" fill="#017DE9"/>
<path fill-rule="evenodd" clip-rule="evenodd" d="M34 13C34 14.1046 33.1046 15 32 15C31.4049 15 30.8706 14.7401 30.5042 14.3277L30.5044 14.3276C30.1907 13.9744 30.0002 13.5094 30.0002 12.9999C30.0002 12.1316 30.5535 11.3926 31.3268 11.1161C31.5372 11.0409 31.7638 11 32 11C33.1046 11 34 11.8954 34 13ZM36.9987 12.886C36.9381 10.1772 34.7233 8 32 8C29.2767 8 27.0619 10.1772 27.0013 12.886L18.0621 18.047C17.2161 17.3907 16.1537 17 15 17C12.2386 17 10 19.2386 10 22C10 24.0299 11.2097 25.7773 12.9474 26.5606V37.4394C11.2097 38.2227 10 39.9701 10 42C10 44.7614 12.2386 47 15 47C16.1537 47 17.2161 46.6093 18.0621 45.953L27.0013 51.114C27.0619 53.8228 29.2767 56 32 56C34.7233 56 36.9381 53.8228 36.9987 51.114L42.1137 48.1608L40.6137 45.5628L36.1155 48.1598C35.2133 46.8549 33.7065 46 32 46C30.2935 46 28.7867 46.8549 27.8845 48.1598L19.7776 43.4793C19.9221 43.0118 20 42.515 20 42C20 39.5625 18.2558 37.5324 15.9474 37.0896V26.9104C18.2558 26.4676 20 24.4375 20 22C20 21.485 19.9221 20.9882 19.7776 20.5207L27.8845 15.8402C28.7867 17.1451 30.2935 18 32 18C33.7065 18 35.2133 17.1451 36.1155 15.8402L44.2224 20.5207C44.0779 20.9882 44 21.485 44 22C44 24.4375 45.7442 26.4676 48.0526 26.9104V33H51.0526V26.5606C52.7903 25.7773 54 24.0299 54 22C54 19.2386 51.7614 17 49 17C47.8463 17 46.7839 17.3907 45.9379 18.047L36.9987 12.886ZM48.5969 20.0406C48.4002 20.0809 48.2141 20.15 48.043 20.2434C47.4217 20.5827 47.0002 21.2421 47.0002 21.9999C47.0002 22.0425 47.0015 22.0848 47.0041 22.1267L47.0039 22.1266C47.0482 22.8347 47.4609 23.4429 48.0526 23.7618V23.7616C48.3346 23.9137 48.6573 23.9999 49.0002 23.9999C49.1382 23.9999 49.2729 23.986 49.4031 23.9594C49.5972 23.9196 49.781 23.8518 49.9502 23.7603C50.5754 23.4221 51 22.7607 51 22C51 20.8954 50.1046 20 49 20C48.8619 20 48.7271 20.014 48.5969 20.0406ZM15.0002 20C15.026 20 15.0517 20.0005 15.0773 20.0015ZM15.0773 20.0015C16.1461 20.0421 17 20.9213 17 22C17 23.1046 16.1046 24 15 24C13.8955 23.9999 13.0002 23.1045 13.0002 22C13.0002 21.4965 13.1863 21.0364 13.4934 20.6848L13.4931 20.685C13.7795 20.357 14.1712 20.1234 14.6156 20.0369L14.6155 20.037C14.7131 20.0179 14.8133 20.006 14.9155 20.0018C14.9435 20.0006 14.9717 20 15 20M14.5969 40.0406C14.4028 40.0804 14.219 40.1482 14.0498 40.2397C13.4247 40.5779 13.0002 41.2393 13.0002 41.9999C13.0002 42.5035 13.1863 42.9637 13.4935 43.3153L13.4931 43.315C13.7795 43.643 14.1712 43.8766 14.6156 43.9631L14.6153 43.9629C14.7399 43.9872 14.8685 43.9999 15.0002 43.9999C15.1382 43.9999 15.2729 43.986 15.4031 43.9594C15.5914 43.9208 15.7701 43.8558 15.9351 43.7684C16.5685 43.4328 17 42.7668 17 42C17 40.8954 16.1046 40 15 40C14.8619 40 14.7271 40.014 14.5969 40.0406ZM32.4031 52.9594C32.2729 52.986 32.1382 52.9999 32.0002 52.9999C30.8956 52.9999 30.0002 52.1045 30.0002 50.9999C30.0002 50.4905 30.1907 50.0255 30.5043 49.6724L30.5042 49.6723C30.8706 49.2599 31.4049 49 32 49C33.1046 49 34 49.8954 34 51C34 51.7671 33.5681 52.4334 32.9342 52.7689C32.7695 52.856 32.5911 52.9209 32.4031 52.9594ZM47.0039 41.8734L47.0041 41.8733C47.0015 41.9152 47.0002 41.9574 47.0002 41.9999C47.0002 43.1045 47.8956 43.9999 49.0002 43.9999C49.1316 43.9999 49.2601 43.9873 49.3845 43.963L49.3844 43.9631C50.3051 43.7838 51 42.9731 51 42C51 40.8954 50.1046 40 49 40C48.8683 40 48.7396 40.0127 48.615 40.037C48.4457 40.07 48.284 40.1244 48.1329 40.1972C48.1058 40.2103 48.079 40.224 48.0526 40.2382V40.2382C47.4609 40.5571 47.0482 41.1653 47.0039 41.8734ZM54 42C54 44.7614 51.7614 47 49 47C46.2386 47 44 44.7614 44 42C44 39.2386 46.2386 37 49 37C51.7614 37 54 39.2386 54 42Z" fill="#017DE9"/>
<circle cx="49.5498" cy="33" r="1.5" fill="#017DE9"/>
<circle cx="41.4214" cy="46.8281" r="1.5" fill="#017DE9"/>
</svg>
