<svg width="64" height="64" viewBox="0 0 64 64" fill="none" xmlns="http://www.w3.org/2000/svg">
<circle opacity="0.5" cx="32" cy="34" r="4.5" stroke="#017DE9" stroke-width="3"/>
<path fill-rule="evenodd" clip-rule="evenodd" d="M48.478 28.1343C49.1417 30.0077 50.8224 31.5685 53 31.8325V36.1675C50.8224 36.4315 49.1425 37.9922 48.478 39.8635C48.2789 40.4244 48.0516 40.9719 47.7975 41.5052C46.943 43.2985 47.0276 45.5897 48.3801 47.3157L45.5898 50.1061L40.1043 43.9877C40.1035 43.9853 40.1024 43.982 40.1012 43.9778C40.0997 43.9729 40.0981 43.9666 40.0963 43.9589C40.0833 43.9001 40.0689 43.7649 40.1068 43.5469C40.1882 43.0794 40.4594 42.5285 40.8297 42.1264C41.9525 40.9068 42.8269 39.4514 43.3704 37.8436C43.9422 36.1582 44.1178 34.4016 43.93 32.6958C43.7506 31.0366 43.2331 29.4787 42.4476 28.0926C41.6022 26.5941 40.425 25.2612 38.9487 24.2154C37.8191 23.4118 36.5445 22.7989 35.1717 22.4236C33.7286 22.0272 32.246 21.9125 30.7982 22.0594C29.0476 22.2335 27.4078 22.7838 25.9607 23.6282C24.5572 24.4437 23.3042 25.5532 22.3033 26.9293C21.4131 28.1481 20.747 29.5411 20.3659 31.0475C20.0198 32.4083 19.922 33.8008 20.0558 35.1631C20.2161 36.8264 20.7166 38.3919 21.4859 39.7872C22.4906 41.6166 23.9852 43.2068 25.9116 44.3406C26.1566 44.5148 26.4562 44.6172 26.7797 44.6172C27.6081 44.6172 28.2797 43.9456 28.2797 43.1172C28.2797 42.5914 28.0092 42.1288 27.5998 41.861L27.6042 41.8533C27.5695 41.8339 27.5348 41.8142 27.5002 41.7942C26.4959 41.2144 25.6457 40.4702 24.9638 39.6153C24.9643 39.615 24.9648 39.6146 24.9653 39.6142C24.7076 39.2917 24.4717 38.9512 24.2596 38.5947C23.5715 37.4331 23.1538 36.1309 23.0344 34.792C23.0116 34.5311 23 34.2669 23 34C23 33.2499 23.0918 32.5212 23.2647 31.8245C23.4634 31.0283 23.7752 30.2461 24.206 29.5C24.3707 29.2147 24.5486 28.9419 24.7386 28.6818C25.4669 27.6891 26.3939 26.8512 27.461 26.2267C28.5764 25.5768 29.819 25.1746 31.0977 25.0447C31.3945 25.0151 31.6955 25 32 25C32.8295 25 33.6328 25.1122 34.3955 25.3223C35.1158 25.5217 35.8229 25.8147 36.5002 26.2057C36.7412 26.3449 36.9734 26.4935 37.1965 26.6509C38.2838 27.4211 39.1927 28.4266 39.8491 29.5932C40.4379 30.6442 40.8097 31.803 40.9446 32.9955C40.9812 33.3253 41 33.6604 41 34C41 34.8606 40.8792 35.693 40.6536 36.4812C40.455 37.1718 40.1699 37.8496 39.7944 38.5C39.7738 38.5357 39.753 38.5712 39.732 38.6065L39.733 38.6071C39.4141 39.1412 39.0415 39.6394 38.6227 40.0944C37.1545 41.689 36.4192 44.3714 37.8662 45.9853L43.3561 52.1087C44.505 53.3901 46.4941 53.4443 47.7111 52.2274L50.937 49.0014C51.8526 48.0858 51.8526 46.6014 50.937 45.6858C50.1803 44.929 50.0455 43.7617 50.5058 42.7957C50.8042 42.1695 51.0711 41.5264 51.3051 40.8674C51.6633 39.8586 52.5844 39.1282 53.6549 39.1282C54.95 39.1282 56 38.0782 56 36.7831V31.2169C56 29.9218 54.95 28.8718 53.6549 28.8718C52.5844 28.8718 51.6633 28.1415 51.3058 27.1324C51.0724 26.4737 50.8062 25.8307 50.5088 25.206C50.0482 24.2388 50.1816 23.0697 50.9391 22.3122C51.8536 21.3977 51.8536 19.9151 50.9391 19.0006L47.0014 15.063C46.0858 14.1474 44.6014 14.1474 43.6858 15.063C42.929 15.8197 41.7617 15.9545 40.7957 15.4942C40.1695 15.1958 39.5264 14.9289 38.8674 14.6949C37.8586 14.3367 37.1282 13.4157 37.1282 12.3451C37.1282 11.05 36.0782 10 34.7831 10H29.2169C27.9218 10 26.8718 11.05 26.8718 12.3451C26.8718 13.4157 26.1415 14.3367 25.1324 14.6942C24.4737 14.9276 23.8307 15.1938 23.206 15.4912C22.2388 15.9518 21.0697 15.8184 20.3122 15.0609C19.3977 14.1464 17.9151 14.1464 17.0006 15.0609L13.063 18.9986C12.1474 19.9142 12.1474 21.3987 13.063 22.3142C13.8197 23.071 13.9545 24.2383 13.4942 25.2043C13.1958 25.8305 12.9289 26.4736 12.6949 27.1326C12.3367 28.1414 11.4157 28.8718 10.3451 28.8718C9.04996 28.8718 8 29.9218 8 31.2169V36.7831C8 38.0782 9.04996 39.1282 10.3451 39.1282C11.4157 39.1282 12.3367 39.8585 12.6942 40.8676C12.9276 41.5263 13.1938 42.1693 13.4912 42.794C13.9518 43.7612 13.8184 44.9303 13.0609 45.6878C12.1464 46.6023 12.1464 48.0849 13.0609 48.9994L16.2889 52.2274C17.457 53.3954 19.3364 53.3924 20.5014 52.2573C20.5372 52.2241 20.5714 52.1891 20.6038 52.1526C20.6092 52.1468 20.6146 52.1409 20.62 52.1351C20.628 52.1263 20.636 52.1175 20.6439 52.1087L23.2394 49.2138L23.2386 49.213C23.5071 48.9419 23.6729 48.569 23.6729 48.1574C23.6729 47.329 23.0013 46.6574 22.1729 46.6574C21.7632 46.6574 21.3918 46.8217 21.1211 47.0879L21.1185 47.0853L18.4102 50.1061L15.6197 47.3155C16.9728 45.5866 17.0521 43.2942 16.1999 41.5043C15.9473 40.9738 15.7208 40.4269 15.522 39.8657C14.8583 37.9923 13.1776 36.4315 11 36.1675V31.8325C13.1776 31.5685 14.8575 30.0078 15.522 28.1365C15.7211 27.5756 15.9484 27.0281 16.2025 26.4948C17.057 24.7015 16.9724 22.4103 15.6199 20.6843L18.6845 17.6197C20.4134 18.9728 22.7058 19.0521 24.4957 18.1999C25.0262 17.9473 25.5731 17.7208 26.1343 17.522C28.0077 16.8583 29.5685 15.1776 29.8325 13H34.1675C34.4315 15.1776 35.9922 16.8575 37.8635 17.522C38.4244 17.7211 38.9719 17.9484 39.5052 18.2025C41.2985 19.057 43.5897 18.9724 45.3157 17.6199L48.3803 20.6845C47.0272 22.4134 46.9479 24.7058 47.8001 26.4957C48.0527 27.0263 48.2792 27.5731 48.478 28.1343Z" fill="#017DE9"/>
</svg>
