<svg width="64" height="64" viewBox="0 0 64 64" fill="none" xmlns="http://www.w3.org/2000/svg">
<path fill-rule="evenodd" clip-rule="evenodd" d="M18 14H50V24H45H18C17.1716 24 16.5 24.6716 16.5 25.5C16.5 26.3284 17.1716 27 18 27H45H46H50V35.5C50 36.3284 50.6716 37 51.5 37C52.3284 37 53 36.3284 53 35.5V27V24V14C53 12.3431 51.6569 11 50 11H14C12.3431 11 11 12.3431 11 14V22.5C11 23.3284 11.6716 24 12.5 24C13.3284 24 14 23.3284 14 22.5L14 14H18ZM14 37V28.5C14 27.6716 13.3284 27 12.5 27C11.6716 27 11 27.6716 11 28.5V37V40V50C11 51.6569 12.3431 53 14 53H50C51.6569 53 53 51.6569 53 50V41.5C53 40.6716 52.3284 40 51.5 40C50.6716 40 50 40.6716 50 41.5V50H46H14V40H19H46C46.8284 40 47.5 39.3284 47.5 38.5C47.5 37.6716 46.8284 37 46 37H19H18H14Z" fill="#017DE9"/>
<path opacity="0.5" fill-rule="evenodd" clip-rule="evenodd" d="M33 18.5C33 17.6716 33.6716 17 34.5 17H44.5C45.3284 17 46 17.6716 46 18.5C46 19.3284 45.3284 20 44.5 20H34.5C33.6716 20 33 19.3284 33 18.5ZM34.5 33.5C35.3284 33.5 36 32.8284 36 32C36 31.1716 35.3284 30.5 34.5 30.5C33.6716 30.5 33 31.1716 33 32C33 32.8284 33.6716 33.5 34.5 33.5ZM41 32C41 32.8284 40.3284 33.5 39.5 33.5C38.6716 33.5 38 32.8284 38 32C38 31.1716 38.6716 30.5 39.5 30.5C40.3284 30.5 41 31.1716 41 32ZM46 32C46 32.8284 45.3284 33.5 44.5 33.5C43.6716 33.5 43 32.8284 43 32C43 31.1716 43.6716 30.5 44.5 30.5C45.3284 30.5 46 31.1716 46 32ZM34.5 43.5C33.6716 43.5 33 44.1716 33 45C33 45.8284 33.6716 46.5 34.5 46.5H44.5C45.3284 46.5 46 45.8284 46 45C46 44.1716 45.3284 43.5 44.5 43.5H34.5Z" fill="#017DE9"/>
</svg>
