<svg width="64" height="64" viewBox="0 0 64 64" fill="none" xmlns="http://www.w3.org/2000/svg">
<path opacity="0.5" fill-rule="evenodd" clip-rule="evenodd" d="M34 25V23C34 21.8954 33.1046 21 32 21C30.8954 21 30 21.8954 30 23V25H34ZM37 25H38C39.6569 25 41 26.3431 41 28V40C41 41.6569 39.6569 43 38 43H26C24.3431 43 23 41.6569 23 40V28C23 26.3431 24.3431 25 26 25H27V23C27 20.2386 29.2386 18 32 18C34.7614 18 37 20.2386 37 23V25ZM26 40V28H38V40H26Z" fill="#017DE9"/>
<path fill-rule="evenodd" clip-rule="evenodd" d="M31.407 10.888C31.7858 10.7248 32.215 10.7248 32.5938 10.888L48.0938 17.5645C48.644 17.8015 49.0004 18.3431 49.0004 18.9421V38.0616C49.0004 39.2875 48.2849 40.8206 46.8321 42.555C45.4125 44.25 43.4543 45.9401 41.3642 47.4517C39.2811 48.9581 37.1181 50.2506 35.3282 51.1606C34.4323 51.616 33.6488 51.966 33.0293 52.198C32.7193 52.3142 32.4667 52.3946 32.2725 52.4443C32.1026 52.4878 32.019 52.4968 32.0017 52.4987L32.0004 52.4988L31.999 52.4987C31.9818 52.4968 31.8982 52.4878 31.7283 52.4443C31.5341 52.3946 31.2815 52.3142 30.9715 52.198C30.352 51.966 29.5685 51.616 28.6726 51.1606C26.8827 50.2506 24.7197 48.9581 22.6366 47.4517C20.5465 45.9401 18.5883 44.25 17.1686 42.555C15.7159 40.8206 15.0004 39.2875 15.0004 38.0616V22.9989C15.0004 22.1705 14.3288 21.4989 13.5004 21.4989C12.672 21.4989 12.0004 22.1705 12.0004 22.9989V38.0616C12.0004 40.3514 13.2665 42.5683 14.8688 44.4814C16.5042 46.4339 18.6746 48.2887 20.8785 49.8826C23.0895 51.4816 25.386 52.8551 27.3131 53.8348C28.2757 54.3242 29.165 54.7249 29.9192 55.0074C30.6117 55.2668 31.3734 55.4991 32.0004 55.4991C32.6274 55.4991 33.389 55.2668 34.0816 55.0074C34.8357 54.7249 35.7251 54.3242 36.6877 53.8348C38.6148 52.8551 40.9112 51.4816 43.1222 49.8826C45.3262 48.2887 47.4966 46.4339 49.132 44.4814C50.7343 42.5683 52.0004 40.3514 52.0004 38.0616V18.9421C52.0004 17.145 50.9311 15.5202 49.2806 14.8092L33.7806 8.13273C32.6443 7.64326 31.3565 7.64326 30.2202 8.13273L12.907 15.5903C12.1461 15.918 11.795 16.8005 12.1228 17.5613C12.4505 18.3222 13.3329 18.6733 14.0938 18.3455L31.407 10.888ZM30.0002 32.9991C30.0002 31.8945 30.8956 30.9991 32.0002 30.9991C33.1047 30.9991 34.0002 31.8945 34.0002 32.9991C34.0002 33.5113 33.8076 33.9785 33.491 34.3323C33.4971 34.3871 33.5002 34.4427 33.5002 34.4991V36.4991C33.5002 37.3275 32.8286 37.9991 32.0002 37.9991C31.1717 37.9991 30.5002 37.3275 30.5002 36.4991V34.4991C30.5002 34.4427 30.5033 34.3871 30.5093 34.3323C30.1927 33.9785 30.0002 33.5113 30.0002 32.9991Z" fill="#017DE9"/>
</svg>
