<svg width="24" height="24" viewBox="0 0 24 24" fill="none" xmlns="http://www.w3.org/2000/svg">
<path fill-rule="evenodd" clip-rule="evenodd" d="M11.25 12.2503C11.25 12.2965 11.2542 12.3418 11.2622 12.3858L8.31402 9.43759C8.02113 9.1447 7.54625 9.1447 7.25336 9.43759C6.96047 9.73048 6.96047 10.2054 7.25336 10.4982L11.3269 14.5718C11.6198 14.8647 12.0947 14.8647 12.3876 14.5718L16.4611 10.4982C16.754 10.2054 16.754 9.73048 16.4611 9.43759C16.1682 9.1447 15.6934 9.1447 15.4005 9.43759L12.75 12.0881V5.1958C12.75 4.78159 12.4142 4.4458 12 4.4458C11.5858 4.4458 11.25 4.78159 11.25 5.1958V12.2503ZM15.5881 18.5966C16.0024 18.5966 16.3381 18.2608 16.3381 17.8466C16.3381 17.4324 16.0024 17.0966 15.5881 17.0966H7.82082C7.40661 17.0966 7.07082 17.4324 7.07082 17.8466C7.07082 18.2608 7.40661 18.5966 7.82082 18.5966H15.5881Z" fill="#017DE9"/>
</svg>
