<svg width="24" height="24" viewBox="0 0 24 24" fill="none" xmlns="http://www.w3.org/2000/svg">
<path fill-rule="evenodd" clip-rule="evenodd" d="M5.25 4.5C4.83579 4.5 4.5 4.83579 4.5 5.25V18.25C4.5 18.6642 4.83579 19 5.25 19H18.6983C19.1125 19 19.4483 18.6642 19.4483 18.25V5.25C19.4483 4.83579 19.1125 4.5 18.6983 4.5H5.25ZM6 17.5V6H17.9483V17.5H6ZM7.85806 14.9608C7.56025 15.2486 7.5522 15.7235 7.84009 16.0213C8.12797 16.3191 8.60278 16.3271 8.90059 16.0392L10.4523 14.5392C10.5985 14.3979 10.6811 14.2033 10.6811 14C10.6811 13.7967 10.5985 13.6021 10.4523 13.4608L8.90059 11.9608C8.60278 11.6729 8.12797 11.6809 7.84009 11.9787C7.5522 12.2765 7.56025 12.7514 7.85806 13.0392L8.85195 14L7.85806 14.9608Z" fill="#017DE9"/>
<line x1="6" y1="9.25" x2="19" y2="9.25" stroke="#017DE9" stroke-width="1.5"/>
</svg>
