<svg id="Layer_1" data-name="Layer 1" xmlns="http://www.w3.org/2000/svg" xmlns:xlink="http://www.w3.org/1999/xlink" viewBox="0 0 2493.59 1565.39"><defs><style>.cls-1{fill-rule:evenodd;fill:url(#linear-gradient);}.cls-2{fill:#fff;}</style><linearGradient id="linear-gradient" x1="2189.04" y1="-3096.41" x2="5980.2" y2="594.98" gradientTransform="matrix(0.23, 0, 0, -0.23, 225.25, 545.48)" gradientUnits="userSpaceOnUse"><stop offset="0" stop-color="#9d141c"/><stop offset="0.6" stop-color="#c04215"/><stop offset="1" stop-color="#e4700d"/></linearGradient></defs><path class="cls-1" d="M1035.91,299.64c20.22-8.22,28.31-18,52.64-18.66,8.8-9.61,37.45-13.12,41.45-23.42,3-7.59,1.28-8.37,9.13-12.83,9.33-5.3,24.63-7.13,36.47-6.58,19.2.87,33.72-4.94,37.61,4.08-6,2.66-10,1.57-14.79,5.9-5.35,4.86-1.73,2.14-8.29,4.81-5.44,2.2-1.26,1.17-5.23,3.44-1.83-5-7.4-10.62-14.45-10.62-1.15,0-21.6,3.71-22.29,3.93,3.68,19.73,19.61-7.44,30,22.5.24-.28.44-1.18.53-1s.4-.75.51-1c2.83-5.09.51-3,2.94-4.52,3.14,4.37,5.58,13.59,9.24-.32,6.66,6.53,19.6-.08,33.22-4.11,8.38-2.48,26-10,35.1-8.23-1.2,7.2-10.84,8.73-12.11,15.82,6.24-.7,14.79-7.62,22.57-10.11,20.73-6.63,43.72-4.81,64-4.48,11.62.19,22.91-1,34.54.2,5.38.48,10.44,1.57,15.54,2.26,10.16,1.38,36,1.26,41.9,11.69.2.34.68,1.5.82,1.82l.75,1.88c8.59-2.32,9.06-1.37,17.63.55,37.13,8.31,5.8,10.86,25.51,18.65,28.3,11.2,51.91,29.28,56.94,31.54,9.1,4.1,7.93-9.17,30.7,6.82l40.8,25.5c20.17,11.47,34.81,40.72,44.18,43.92-5.5-8.3-27.76-29.14-27.21-41.15,17.76-5.73,32.46,22.87,45.27,40.18l34.71,55c5,6,1.82-.87,4.2,6,2.78,8.11,7.33,13.38,14,19.91,3.21,3.14,8.9,5.59,10.8,11.23,7.48,22.22,15.76,13.93,23,43.42,3.26,13.25,9.33,22,11.48,35.08,21.46,71.58,45.33,163.23,49.07,252.14a13.54,13.54,0,0,1,2.14-1.68c.73,7.86-.32,12.61,1.4,20.67,1.8,8.44,1.76,11.29.48,20.18-2.88,20,4.46,5.34-6.07,38.74l-.63.74c-3.59,29.53-10.4,57.91-21.38,84.19-18.33,56.85-23.59,81.68-55.13,130.72-9.66,15-1.6,7.14-17.6,27.9l-20.86,25.9c-9.9,13.74-4,10.27-20.43,26.34-7.09,6.94-16.09,15.08-21.32,25.82l-21.16,21.37c-4.4,3.69-5.66,3-5.79,9.64-6.88-2.36-1.88-2.36-8,3.77-8.11,8.08-23.29,14.28-29.88,24.73-6.7-1-6.37-2.69-12.88,3.91-.26.27-1,1.09-1.23,1.36l-1.36,1.27c-.37.33-2.3,1.73-3,2.32a53.26,53.26,0,0,0-5.42,5.42c7.58-.55,7.4-3.56,13.82.4l5.19,2.61c-5.46,4.68-4.66,8-13.3,8.09,3.22-4.94,3.15-1.84,5.77-7.29-6.62.87-10.26,4.21-15.86,6.93-3,1.47,1,.3-2.43.69-3.81.43,2.25-.42-2.84-.12-4.91.28-4.9,1.36-8.08,5.51l-3.68,4.13c-7.4,6.09-15.2,10.37-22.93,14.79-8,4.55-12,5.5-19.52,11.52-.11,5.61,2,5.27-.81,8.47l6.28,1.2c-10.46,6.86-5.88-4.16-18.79,7-3.44,3-3.29,2.52-4.1,8l20.68-7.23c-2.65,1.29-5,3.29-8.25,4.9-7.3,3.61-5.32.27-8.29,7.28-5.75-5.91-9.14.92-12.51,6.62,4.66-1,4.88-2.83,8.77-1.32-2.61,1.23-8.17,2.55-10.41,5.34-3.66,4.55-.24,7.26-6.47,9.87l3.33-8.22c-10.66-.46-2.86,3.44-10.18,7.13-6.91,3.48-5.38-.94-12,6.15-4.27,4.57-3.1-.58-3.47,5.91s1.51,4.57,5.13,8l2.58,2.3c2.3,1.92.86.51,2.83,3.34,7.47.45,8.76-.39,11.28-3.77,3.73-5-2.71-.06,2.67-3.73,7.27-1,8.49,1.5,13.62,2.9,4.64-7.3-.07-2.37,7.38-5.55,3.13-1.34,5.24-3,9.72-4-.26.25-.59.33-.7.83-.65,2.81-5.26,4.69-7.25,6.35-.22.18-.5.44-.7.62-7.26,6.67-2,4.34-13.49,5a4.08,4.08,0,0,0-.84.09l0,1.5c.41,3.52,2.31,1.06-.49,5.69-5.29,8.74-3.79.13-6.71,6.21,1.46,6,4.18,5.35,10.18,5.58l2.2,4.81c.41-.15,2.16-2.55,2.41-2.67,3.67-1.82,4.6,1.11,12.62-4.67,6.13-4.41,7.19-7.35,15.77-10.26,7.37-2.49,19.29-2.86,22-10.58,2.13-6.13-1.22-1.66-.2-7.9.2-1.27.8-3.35,1-5.38l11-2.18a16.17,16.17,0,0,1-4-3.13c.73-.73,1.35-1.22,1.89-1.75l2.37-2.47c-7.26.93-4.07,1-8.42,5.37l-3.64-6.39-2.73,5.78c-1.41,2.54-.42,1.79-3.83,2.84.09-.24.34-.85.38-.68l1.48-4.74c-9.45-.25-3.53,3.3-8.3,7.64-7.49,6.8-6.42-3.54-7.12,11.26-9.39,0-2.4,3.26-8.88,6-3.44-6.58,2.62.92-.58-4.2-2-3.13,2,.53-1.85-1.6-.25-.14-.7-.27-1-.39s-1.78-.5-2.17-.69c.23-.28.57-1.07.68-.86l3-4.28c.81-1.48,2-3.57,1-6.23-8.59-2.48-17.56,8.67-25.53,9,4.37-2.34,21-13.53,26.94-14,9.23-.79-.59,5.78,21.53-4.79,10.94-5.22,9.73-4.49,4.91-14.26,4.42-3.33,10-4.38,15.58-7.18,3.69-1.85,4.38-3.53,9.56-4.54-4,18.78-12,2.25-20.47,18.21,5.38,3.43-1.12.68,6.23,1.18,3.1.21,2.85.42,6.06,1.16-.39-4.25-.31-3.22-2.26-5.93l5.07-1.59c1.81,4.3-3.57,2.66,2.51,4.79.62-1.08,5.86-12.73,6.36-14.23.25.27.51.39.62.9a1.8,1.8,0,0,0,.62.89c3.1,4,4.2,4.52,9.78,3.72.39,0,1.46-.25,1.8-.3l.83-.12.82-.11a7.79,7.79,0,0,0,.81-.08,17.24,17.24,0,0,0-1.9-10.2c-4.74-7.62-1.84,3.13-4.43-4.13,1.43-1.31,7.52-4.83,10.82-5.26l2.6,5.81,10.17-5.7c-1.69,7.67-4.43,4-9.83,9.71,1.32,4-1.88,1,4.53,3.35-5.38,3.6-1.2,3-4.87,8.89l-2.6-5.38-4.38,6.85c-2.42,4.53-4.32,6.08-11.22,7.07-2-3.59-1.52-5.29-5.41-6.62-3.13,9.56,3.56,13.51-12.69,11.21l2.87,14.53c9.65-1.78,8.75-8,18.92-7.6.92-13.61.72-8.59,11.91-9.36,4.61-5.4,2.44-8.34,14-7.87-1.27,5.57-1.45,4.44-5.39,6.52l3,1.87c2.61,1.9,1.34-.26,3,2.63l-9.44,2.76,1.49,3.27c.11,8.08-3-5-.15,1.83,8.53-2.44,8.46-3.75,16.61-.38l2.45-7.23c10,.72,11.16-2.9,15.11,1.79-8.56,2.58-21.68,8.1-31.65,11.94-9.63,3.73-22.47,9.89-32.67,12.13.75,7.14,2.77,1.2,0,5.82-9.81.8,0-.42-4.64-2.43-3-1.3-3.36-.21-5.36,1.53-6.54,5.68-1.66,3.15-11.64,5.23-8,1.69-14.9,7.18-23.42,10.3-17.18,6.31,3.69,3.41-22.21,9-19.42,4.2-11.47,6.49-21.42,11.66-.23.12-.7.26-1,.46,5.71-.66,6.75-3.11,9.35-1.53-5.61,7.36-23.92,7.78-27.76,8.45-6.28,1.1-24.49,4.53-26.74,9.74,4.88,2.26,9.64-1.41,16.6-1.26-3.48,5-4.57,1.94-11.36,7.73l-4.28,4.21c21.57-3.31,20.13-8.63,24.41-12.64,3.17-3,4.79-2.41,8.07-4.53l1.86,1.13c5.46,3.67,6.7,4.77,19.89,1.07,14.41-4,8.54-3.06,13.13-6.68,2-1.55,2.36-1.68,5.49-1.7l-4.37,4.26,9.48.34-1.94,5.71c-.61,3.81,2.53,3.83-3.32,5.8-7.93,2.67-11.66-.59-18.24-1.78-7.91-1.42-9.7,1.37-15.36,3.37-6.34,2.25-30.56,4.33-47.25,13.76-3.22,1.83-9.12,5.24-12.53,7-9.22,4.74-13.68,4.19-14.76,9.29l.72,7.67c3,5.41.2.62,2.58,3,2.89-2.69,3.37-.94,1.9-4.35-2.56-6,.84,4.44-3.23-2.53,5-1.78,6.3-3.77,10.43-6.49,1.17,2,1.79-.68.59,4.58-2.39-3.42-.58-2.12-5.11-1.39l-.21,9.68c6.93-1.68,10.41-5.61,14.59-9.37,7.71-6.93,6.06-4.61,15.59-5,.13-3.68-.55-4.11-2.22-6.37l10.27.62c-.76,5.76-3.64,4.91-3.28,12.17,11-.78,28.19-5.61,38.55-8.64,7.1-2.08,12.37-3.83,18.65-6.17,8.45-3.16,13-2.56,10.32-12.15l-5.49,5.59c-4.38-.38-4.18-.11-7.11-2.87,1.78-3,12-5.89,16.16-7.83,10.23-4.81,10.82-3,15.64,4,4.71-.71,5.76-1.77,10-3,7.22-2.08,7.62.19,11.52-.57,17.29-3.39,11.94-9.33,22.72-10.32,14.54-1.33,7.58-5.37,16.75-6.95,3.88-.67,4.56-1.2,7.7-2.81,4.83-2.48,8.83-4.48,13.6-7.1,12.16-6.7,11-3.2,11.92-8.68,16.19-3.12,14.7.93,33.17-11.16l81.83-54.48c1.49,1.79,2.41,3.34,5.26,3.48,3,.14,2.79-1,6-2.27-2.1,6.73-3.75,3.18-5.39,8.3,3.16-.62,34.89-30.58,37.78-33.65,9.26-9.83,19.49-13.64,39.18-34.89,7.89-8.5,13.73-5.59,22.44-13.94,5.82-5.59,12.32-12,17.58-18.79,8-10.4,5.08-13.33,18.6-18,6.28-2.17,12.63-15.07,16-21.25.12-.31.16-1.18.19-1a6.28,6.28,0,0,0,.17-1c1.2-5.86,0-2,7.92-9.5,4.67-4.47,7.11-6,10.63-12.76,6.8-13,11.25-19.46,26.14-17.94,9.83-26.89,20.39-33.57,29-56.71,5.28-14.22,6-6.11,11.19-17.36,6.11,1.19,2,.18,6.53,4.29l12.22-39.15c1.45-3.5,4.7-7.7,6.72-11.4,3.35-6.12,1-21.2,1.48-30.32.36-6.56,2.53-6.71,4.73-11.48,2.47-5.4,2-9.76,3.62-14.63,1.44-4.41,3.72-5.86,5.92-10.92,1.5-3.42,2.68-8.66,4.9-12,7.2-10.86,14.81-11,11.9-21.79-3.34-12.33-8.77.63-1.73-24,9.21-32.16,8-11.6,14.52-21.14,1-10.83,2.31-21,4-31.74l3.33-52.47c-.25-9.1,2.33-8.75,3.37-15.88,2-13.8-3-7.5,3.2-15.29,3.83-4.79,4.21-8.79,1.77-15.73-1.49-4.21-5.23-8.36-6.39-12l-3.26-33.19c1.3-7,5.17-6.3,6.22-13.32.84-5.57,0-11.69,2.18-16.29,4.2-8.92,3.68-3.45,2.84-14.85-.46-6.22,1.09-12.35.78-16.68-.74-10.36-3.36,2.16-1.24-15.58-2.18-2.64-6.15-4.45-7.17-8.44-1.39-5.45,1.19-7-1.23-14.48l-7-39.75c-.49-8.74.4-6.24-3.12-12.53-4.45-7.94-3.92-18.06-7.09-24.18-3.09-7.87-3.09-4.56-3.7-14.73a52.43,52.43,0,0,0-3.67-15.57c-6.15-16.52-4-17.82-11.92-27.55,1.84-5.65,3.69-4,1.81-9-.94-2.5-3.54-5.71-4.67-9.69-2.43-8.61,1.38-5-5.11-23.42-1.49-4.24-3-6.33-4.31-10-1.42-3.91-1.46-7.9-3.11-11.32s-3.95-4.88-6-8.25a49.26,49.26,0,0,1-4.56-9.77l-5.93.06c1.9-6.18,5.52-7.34,3-13.82-2-5.32-5.65-6.24-8.08-10.2-8.66-14.13-.3-15.8-18-36.67-9.06-10.71,2.09-4.42-21.57-34.31-23.5-29.67-8.1-20.19-19-35.63-2.8-4-4.19-7.59-7.08-11.13-3.7-4.53-5.7-3.62-9.84-8.38-8.91-10.22-4.16-4-9.53-8.63-4.48-3.85-3-6.89-6.79-11.38-3-3.54-6.85-4-11.93-7.1-2.52-9.9,5.76-13.91-5.7-19.51-8.49-4.15-8.83-6.19-13.92-13.32-6.65-9.31-14.59-25.16-27.63-26.63l-.92-2c-2-4.36-.16-3.2-3.52-5.57-2.54-1.79-5.89-1.44-9.74-1.68-3.63-12-8-12.83-15.36-20-7.63-7.41-30.74-24.17-40.4-29.74-6.29-3.64-5.46-5.4-10-8.32s-7.33-3.61-11.65-6.42c-8.15-5.29-13.81-8.54-21.53-13.56-4.29-2.78-7.16-4.85-11.84-6.49s-10.84-1.24-14.48-3.47c-7.88-4.81,4.17-6.25-44-27.49-7.73-3.41-67.34-29.28-71.88-34.8-4.31-5.24-1.14-5.77-10.19-7.93-5.4-1.3-9.65-1.88-14.91-3.33-8.59-2.36-18.82-5.08-28.11-6.84-14.88-2.82-17,.6-29.21-7.31-7.93-5.13-18.34-4.92-28.72-6.25-20.91-2.67-27.31.23-34-.74-7-3.5-25.29-4.32-34.4-2.72C1369,14.29,1355,6.1,1333.17,9.78c-9.68,1.63-8,.23-15.39-1.89-7.7-2.21-107-3.83-114.81-3.23-20,1.55-33.75-4.66-52.75.44-7.34,2-5.72,5.56-11,9.75-11.64-.5.78-3.63-11.66-3.5-7.47.09-5.21,2.91-11.75,3.55-44,4.27-22.78,5.72-35.1,8-8.83,1.66-16.7.24-30.92,11-2.22.49-20.76,5.35-21.82,5.91-4,2.05-3.12,4.1-9.63,4.71-5.72.55-18.08-3.41-34.78,4.22-7.87,3.6-8.74,10-17.27,11-9.16,1-14.08,3.75-22.47,5.15L919.7,69.54c-2.43,1.18-4.47,4-7.27,5.68-8.33,5.06-14.82,1.28-24,18.58-9.39.22-14.1-2.2-22.6,2.33-8.79,4.69-7.66,7.57-9.18,18.2-12.86,4.16-26.72,7.79-32.89,16.75-6.15.32-15,5.79-19.63,11.18-13.81,16-8.55,10.19-19.38,12.86s-10.68,12.52-16,15.34c-9,4.79-8.49-2.53-17.43,10.11-3.48,4.91-2.59.51-6.69,6.25-11.33,15.88-11.5,4.5-32.87,23l-29.64,24.85c-3.32,3-2.45,1.76-4.38,5.55-2.7.71-.69-.42-3.73,2l-9.36,10.15c-9.2,10.1-5.51,2.79-12.81,14.45-5.88,9.37-16.28,12.59-28.07,26.53-8.34,9.87-16.43,18-24,29.26-3.15,4.69-2.09,3.29-6.19,6.62-3.39,2.76-15.64,17.17-13.7,25.48-12.39.3-7.54,7-18.28,20.68-10.47,13.37-23.54,34.8-33.33,47.22-6.68,8.47-11,13-15.87,24.93-8.13,7.76-21.35,29.24-24.66,41-2.5,8.87-4.52,17.28-6.71,25.69a92.62,92.62,0,0,1-4.61,12.5c-3.06,7.42-1.72,6.29-2.8,14.19-1.05,7.74-3,3.54-4.13,11.83-1,7.19-.52,6.72-3.3,13.09-6.44,14.75-.13,20.41-2.42,26.25-.72,1.83-4.52,5.9-6.26,9.29-3.3,6.4-1.59,7-3,13.62-1.2,5.72-11.79,19.19-3.47,22.86-5.57,3.79-5,3.69-5.95,11.73-1.07,9.49-2.69,37.47,4.6,44.22l3.33,2.26C440.15,714,443.26,716,444.27,736c.41,8-2.09,9.24-2.14,16.85-.06,11.19,2.73,21.92,2.34,33.83-.4,12.23-2.63,22.3-1.12,34.26,2,15.55,13.14,36.9,18.36,53.37,6.57,20.77,11,33.8,14.27,56.86,1.27,9,6.61,22.22,5.68,29.29-2,14.87-11.57,11-.8,25.9,9.52,13.17,4.56,42.12,15,64.33,3.6,7.62-1.84,1.2,3.78,11.68l8.59,18.71c3.89,6.77,1.65,8.67,4.22,13.88,3.28,6.67,14.51,18.21,20.75,32.56,3.38,7.76,3.63,4.3,9.67,8.71-1.18.83.85-.19-2.61,1.48-1.41.67-.78.17-2.62,1.12.24,13.29,3.6,10.11,5.55,14.8,1.57,3.77-2.5,1.76,1.67,6.48,2.4,2.71,2.43.1,5.71,4.7-2.08,1.76-4.18,1.2-7,.85.49,8.4,20.76,35.51,27.57,39.52,7.49,4.41,1.8,3.5,8,9,4.22,3.73,5.43,4,9.44,8.72,4.21,5,12.3,14.72,14.93,20.21l5.59-5.67c1.43,8.58,1.71,8.58,6.74,12.8,5.87,4.9,4.83,8.35,8.32,11.15,5.71,4.57,8.43-.45,12.53,7,2.14,3.92,3.06,10.21,5.53,14,3.61,5.54,15.17,12.56,20.28,18.63,5.7,6.77,12.58,17.38,17.92,22.35,4.11,3.83,3.21,1.13,6.37,3.9l1.76,2.14a18.9,18.9,0,0,0,2.72,2.55c3.63,3.11,9.37,12.28,18.51,20.53l19.73,19.15c3.83,3.68,5,7.87,8.5,11.09l26.34,23c4.39,4,1.47,1.38,6.56,3.9,6.75,3.34,3.93,6.32,8.51,10.93,2.41,2.45,8,5.19,11.18,8.32,6.9,6.81,10.68,15.26,18.7,20.31,8.72,5.49,20,18.14,32.38,27.38,14.44,10.74,18.55,26.27,45.44,32.5l47.07,11.55c9.69,2.72,10.53.48,19.16,1.35,4.09,2.91,3.32,4.35,7.17,7.22,2.44,1.81,6.73,3.23,9.51,4.89,8.38,5,16.14,2.42,22.59,5.94,3.32,1.81,4.4,4.82,7.19,7.1,4.19,3.42,5.23,2.19,10,4.34,7.31,3.3,2.07,7.27,18,11.8,20,5.67,30.69,4.23,51.9,3.36,17.65-.72,26.76,2.19,31.45-6,1.63-2.84-3.92.52,1.36-1.68,6.14-2.55,3.35,5.5,3,8.54,8.32,1.53,32.74,1.26,40.74-.86,18.43-4.88,38.59-3.32,56.15-11.39,14-6.42,12.52.93,33.19-12.4,7.81-5,10.19-3.72,20-3.87,1.75-6.77,9.27-13.3,17.8-13,2.06,3.37.81,5.69,2.6,8.76,8.56-11.08,3.24-7.8,4.13-18.88,8.32-4.11,16.2-9.19,23.94-13.68,6-3.47,7.81-.77,11.55-6.64,2.38-3.75,4.94-9,6.93-12.56,6.7-11.75,13.14-11.67,18.39-19.34,3.17-4.63,3-7.64,7.17-12.31,9.16-10.31,0-18.43,12.71-44.5,13.52-27.64-10.09-21.71-14.18-35.94-2.63-9.16,8.51-18.7-3.26-28-6.61-5.21-6.57-.31-15.41-1.11-6.68-3.46-10-12.13-13.89-17.19-6.14-.94-9.29.09-14.41-.46l-7.57-5.31c-.13-.19-.3-.61-.51-.89-24.82,2.34-17.23-8.61-24.32-11.76-10.53-.73-18.3-1-27.67-3.57-12.17-3.3-13.48-7.42-23.38.1-10.36-5.17-17.49-1.15-28.36-2.9-12.86-2.07-15.3-.77-27.11,3.19-2.68,19-11.87,14.42-13.72,6.21-.1-.43-.35-1.81-.43-2.19l-.54-2c-13.22.13-26.72,2.94-29.76-10.22,3-3.87,4.33-4.14,9.26-6.19l8.65-2.85c2.72-1,1.74-.39,3-1.36-5-3.82-4.67-1.76-10.72-1.11-5.44.58-8.54-.52-14.13.09-2.9,4-4.92,9.67-7.91,13.92-12.77,1.65-13.18-5.91-17.4-13.58-2.79-5.08-12.83-9.37-20.1-11-1.67,10.18.9,11.7-8.93,14.46-18,5-21.29-3.38-32.09-13.94-6.08-5.94-11-3.26-18-6.62l-15-8.41c-4.72-2.63-9.88-6.84-14.5-10.18a396.41,396.41,0,0,1-51.34-44.82c-6.5-6.71-16.07-21.78-22.25-25.86-11.57-7.65-8.16-11.13-15.44-19.63-3.46-4-4.84-3.26-7.49-5.53-3.81-3.26-1.47-2.94-3.85-7.73-2.26-4.55-3.22-3.53-6.66-6.44-4.18-3.53-6.38-9.2-11.19-13.77-11.07.34-10.43.45-18.55-8.43a178.59,178.59,0,0,1-13.31-16.59L825,1082.73c-4.76-7.14-2.52-15.84-12-19.6-.57,8,.41,12.23.21,18.81-8.75,6.22-11.48-.88-20.25-10.11-6.49-6.82-11.13-12.42-18.25-19.39-22.75-22.27-21.42-24.63-23.06-52.42-2.74,2.73-.87,1.41-2.18,3.68-3.2,5.56,1.52,2.18-4,4.27-4.19-2.81-1.43-.43-3.42-6.09-2.29-6.48-7.44-11.19-7.76-18.5C701,923,667.05,814.68,683.35,698c1.36-15.53.69-9.15,10.08-12.69,4.57-14,6.31-65.17,7.92-72.58,3.7-17,21.2-54.15,21.41-59,9.22-8.81,4-15.89,27.77-34.92,7.62-6.1,9.86-7,15.67-15.51,4.72-6.88,8.44-11.62,12.91-18.26,4.7-7,9.9-10.4,15.22-16,15.11-15.84,8-12.71,23.56-23.26,3.67-2.49,7.66-3.89,10-5.47l14.67-17.19,29.11-24.87,79.12-54.72c5.83-3.46,12.6-6.08,17.54-9.61l.61-2.27c.09-.3.47-1.73.61-2.09,1.61-4.16,2.71-4.42,11.09-8.28,6.09-2.8,11.28-5.14,17.86-8,10.35-4.51,30.56-8.11,37.39-13.67Zm293.59-52.4c6.37-1.11,4.19-2.48,10.71-4.19,3.42-.91,8.32-1.33,12.73-1.86l.87-4.19c-17.09-16.49-21-2.69-31.39-7.67-13.36-6.41-24.05-1.27-35.81-4.81-4.69-1.42-12.88-9.69-31.82-3.18-11.21,3.85-24.88-.54-38.84-.4l3.63,12.73c4.71-.53,22.2-3.9,26.09-1.87-3.06,5.39-10.15,3.32-19.53,3.55-8.48.21-5.59.37-6.35,1.29-6.3,11.54,19.86,7.94,27.14,6.76,26.69-4.31,23.59-8.3,28.87,2.4,7,.64,9.58,0,15.76-.78,7.7-1,17.74,4.69,31.24,3.22,8.06-.88,1.85-3.7,6.7-1ZM831.76,1174.33c-3.08-1.69-1.52-4.66-5-8.91-11.57-14-4.37.89-10.55-21.84-1.65-6-4-6.89-4.52-12.58l7.94-5.14c-1.25-6.8-1.41.63-5.14-14.22-1.38-5.52-4.94-7.68-11.43-7.47-6.79,9.55-4.49,15.44-12.31,17.88a63,63,0,0,1-3.55-9.57c-2-7.68-.09-1.78,2.57-8.4-20.73-2.7-15,7-7.81,16.48,5.39,7.1,9.84,14.62,14.9,20.19,5.49,6,28.47,33.44,34.94,33.58ZM1587,1419.47c.16-6.38.24-2.87,1.94-4.91l3.52-2.88c-5-2.88-15.86,10.36-19.18,13-5,4-17.08,11.63-25.71,7.74,2.49-2.51,11.9-4.84,15.58-6.2-2-1.43.14-.68-3.15-1.27a13.74,13.74,0,0,0-4.66-.07c-32.81,3.06-18.68,15.23-44.47,27,7,4.33,23.29-6.24,28-9.58,9-6.28,22-5.41,33.71-2.44-5.31,5-5.42,1.62-10.33,4.24,9.26,7.85,16.82,3.31,22.72-3.9-3-2-5.22,1.17-11.38-4.23,2.21-4.52,49.29-27,55.15-31.7-20.09-1.35-13.52,4.83-22.31,6.87-11.88,2.75-11.82,12.51-19.47,8.28Zm-48.6-93.33-1.29,6.84c4.4,1,3.19.19,4.55.24,4.45.17,2-.77,4,.49-3,5.87-1.66-4-8.37,4.26-6.21,7.62-3,2.09-9.13,6.6a6.49,6.49,0,0,0-2.91,4.91l.34,4.49c1.12,4.89,1.86,6.2,8.64,9.51,3-3.48,3.7-4.15.93-7.68.32-.17.87-.69,1-.41a6,6,0,0,0,4.47-3.48l-6.29-.88c12.44-3.57,13.2-.91,26.09-8,7.68-4.22,14.44-9.48,21.65-13.52-5.85-3-3.65,2.25-6.63-3.62,1.48-3,1-1.41,2.72-3,1-.89.34.69,2.65-2.24l-14,6.41c-2-3.87-5.76-8.56,2.13-8.73,7.27-.14,9.25,2.65,11.08-6.11l-24,7.93c-5.33,2.32-.53-1.2-4.85,3.1-9.51,9.46-6.36,6.27-12.73,2.89Z" transform="translate(-3.2 -3.05)"/><path class="cls-2" d="M3.2,652.84h165c20.34,0,157-2.85,163.71,1.72,3.65,3.93,2.29,12.36,2.28,19.54,0,12.12,2,56.17-2.26,59.84-6.85,3.46-294.24,1.44-328.76,1.44V984.09L86.14,984V818.5l152.48-.21L334.37,984l95.44.09c-5.34-14.86-91.34-155.24-94.06-165.73,30.22-.91,49.19-14.42,62.51-29.9,18.25-21.22,19.2-40.82,19.2-74.09,0-53.75,10.08-110.08-48.32-137.25-23-10.72-56.89-7.58-85.26-7.58H3.21v83.29Zm1010.43-.49,285.87.51c-3.47,5.52-33.7,30.12-41.15,36.74-6.44,5.72-13.31,11.78-20.24,17.4l-103.38,89c-33.52,27.21-69.47,61.43-102.64,88.36-3.76,3-6.71,6-10.53,8.95-4.21,3.21-7.49,4.55-7.92,12-1.41,24.13.1,53.62.09,78.38l413.93.11V901.22l-286-.27c2.91-4.94,33.36-29.79,40-35.86s13.16-11.26,20.3-17.37c6.86-5.87,13.79-12.36,21-18l30.83-26.33c35.78-31.46,81.91-68.66,114.42-98.71l41.16-35.5c9.38-7.65,17.95-12.75,18.36-20.91,1.11-22.44.85-55.66-.28-78.19-33.14-1.48-69.31-.17-102.78-.17-46.34,0-302.1-2-311,1l0,81.52ZM2496.8,983.79V569.7h-82.26l-.67,285.56c-7-3.72-133.42-153.64-143.78-165-27.78-30.37-62-74.63-88.93-103.37-3.1-3.3-5.9-6.53-9.12-10.39-3.58-4.3-3.58-6.89-11.69-6.95-24.52-.19-53-1-77.15.22l-.66,413.39,83.22.6,0-285.88c5.57,3.62,189.21,218.62,216.09,249.63l31.76,36,83.17.24Zm-953.61,0,413.94.35-.06-83.12-150.76.06L1626.74,901l-.51-82.37,178.62-.13,152.43-.56-.12-82.47-160,.16-254-.21v248.4Zm-807.89.09,14.77-.26c.28-78.23.46-64.36,0-152.28-.1-18.24,4.39-19.74,20.91-41.81,9.82-13.12,156.17-214.09,158-219.62l-102.26,0L708.79,732.74c-3.91-4.15-22.66-29.48-24.47-34.25-6.15-5.41-18.19-24.52-23.79-32-8.17-10.9-15.5-20.77-23-31.55-5.89-8.45-44.16-59.7-45.3-64.62L489,569.87c1.69,5.42,110.68,155.76,123.15,172.34,10.86,14.45,20.76,28.92,31.09,43,5.6,7.6,9.86,13.78,15.23,21.16,9.1,12.51,8.81,9.22,8.76,28.9-.12,47.87-2.11,100.87,0,148.14l68.07.5Zm808-414-.26,83,240.36.12,173.85-.5-.61-83.23-413.34.56Z" transform="translate(-3.2 -3.05)"/></svg>