<svg id="Livello_1" data-name="Livello 1" xmlns="http://www.w3.org/2000/svg" xmlns:xlink="http://www.w3.org/1999/xlink" viewBox="0 0 662 215.33"><defs><style>.cls-1{fill:#75b943;}.cls-2{clip-path:url(#clip-path);}.cls-3{fill:#1e1e1e;}.cls-4{fill:#fff;}</style><clipPath id="clip-path"><polygon class="cls-1" points="607.33 214.67 0 214.67 0 0 662 0 607.33 214.67"/></clipPath></defs><polygon class="cls-1" points="607.33 214.67 0 214.67 0 0 662 0 607.33 214.67"/><g class="cls-2"><polygon class="cls-3" points="595 215.33 253 215.33 310.33 0 649.33 0 595 215.33"/></g><path class="cls-4" d="M326.15,65.21v-26a6.5,6.5,0,0,1,6.51-6.53h24.72v6.93H335.6a1.86,1.86,0,0,0-1.39.58,1.91,1.91,0,0,0-.57,1.37V62.8a1.84,1.84,0,0,0,.57,1.37,1.87,1.87,0,0,0,1.38.56h13.52a1.87,1.87,0,0,0,1.38-.56,1.85,1.85,0,0,0,.58-1.37V55.51h-9.33V48.59h16.92V65.2a6.19,6.19,0,0,1-1.91,4.56,6.29,6.29,0,0,1-4.62,1.9H332.65a6.49,6.49,0,0,1-6.5-6.45Z"/><path class="cls-4" d="M366.12,71.66v-39h27.35v6.93H373.72v9.16h15.86v6.92H373.72v9.08h19.75v6.93Z"/><path class="cls-4" d="M398.88,71.66v-39h27.35v6.93H406.48v9.16h15.87v6.92H406.48v16Z"/><path class="cls-4" d="M431.09,65.21v-26A6.35,6.35,0,0,1,433,34.55a6.2,6.2,0,0,1,4.55-1.91H457a6.22,6.22,0,0,1,4.55,1.91,6.29,6.29,0,0,1,1.91,4.62v26A6.45,6.45,0,0,1,457,71.66h-19.5a6.44,6.44,0,0,1-6.44-6.45Zm7.49-2.41a1.84,1.84,0,0,0,.57,1.37,1.87,1.87,0,0,0,1.38.56h13.52a1.87,1.87,0,0,0,1.38-.56A1.85,1.85,0,0,0,456,62.8V41.58a2,2,0,0,0-.58-1.41,1.83,1.83,0,0,0-1.38-.6H440.53a1.83,1.83,0,0,0-1.38.6,2,2,0,0,0-.57,1.41Z"/><path class="cls-4" d="M470.42,71.66v-39H493.8a6.27,6.27,0,0,1,4.61,1.91,6.36,6.36,0,0,1,1.9,4.62V49.23a6.33,6.33,0,0,1-1.9,4.62,6.26,6.26,0,0,1-4.61,1.92h-.48l9.56,15.89h-8.16l-9.65-15.89H477.9V71.66Zm7.48-22.82h12.74a2,2,0,0,0,2-2v-5.3a2,2,0,0,0-.58-1.41,1.83,1.83,0,0,0-1.38-.6H477.9Z"/><path class="cls-4" d="M507.2,65.21v-26a6.36,6.36,0,0,1,1.9-4.62,6.29,6.29,0,0,1,4.61-1.91h19.5v6.93H516.65a1.85,1.85,0,0,0-1.38.58,1.88,1.88,0,0,0-.58,1.37V62.8a1.81,1.81,0,0,0,.58,1.37,1.87,1.87,0,0,0,1.38.56h16.56v6.93h-19.5a6.49,6.49,0,0,1-6.51-6.45Z"/><path class="cls-4" d="M539.77,71.66v-39h27.35v6.93H547.37v9.16h15.87v6.92H547.37v9.08h19.75v6.93Z"/><path class="cls-4" d="M575.64,32.64a4.23,4.23,0,1,0,4.23,4.23A4.24,4.24,0,0,0,575.64,32.64Zm0,7.87a3.64,3.64,0,1,1,3.64-3.64A3.64,3.64,0,0,1,575.64,40.51Zm2-4.63A1.84,1.84,0,0,0,575.54,34h-1.92V39.2h1.1V37.76h1l1,1.44h1.36l-1.29-1.76A1.76,1.76,0,0,0,577.63,35.88Zm-2.09.79h-.82V35.12h.82c1,0,1,.57,1,.76S576.53,36.67,575.54,36.67Z"/><path class="cls-4" d="M326.15,172.58V79.07h56a15,15,0,0,1,11,4.59,15.17,15.17,0,0,1,4.55,11.08v24.09a15.17,15.17,0,0,1-4.55,11.08,15,15,0,0,1-11.05,4.58H381l22.89,38.09H384.38l-23.12-38.09H344.09v38.09Zm17.94-54.68H374.6a4.71,4.71,0,0,0,4.7-4.69V100.49a4.73,4.73,0,0,0-1.38-3.38,4.42,4.42,0,0,0-3.32-1.44H344.09Z"/><path class="cls-4" d="M410.82,95.41V79.07h71.75V95.41H455.8v77.17H437.59V95.41Z"/><path class="cls-4" d="M487.26,172.58l31-47.19L489.07,78.94H511l18.47,29.52L548.3,78.94h20.15l-29.52,44.44,31.12,49.2H548.17l-20.35-31.93-20.55,31.93Z"/><path id="path17" class="cls-4" d="M227.6,168.15a3.27,3.27,0,0,1-3.27,3.41h0a3.4,3.4,0,1,1,3.27-3.4Zm1.32,0a4.61,4.61,0,1,0-4.59,4.43,4.35,4.35,0,0,0,4.59-4.43m-5.35.38h.49l1.14,2h1.25l-1.26-2.09a1.13,1.13,0,0,0,1.19-1.23c0-1.1-.76-1.45-2-1.45H222.5v4.77h1.07v-2m0-.81v-1.15h.73c.4,0,.95,0,.95.52s-.28.63-.75.63h-.93"/><path id="path19" class="cls-4" d="M198,143.77l5.73,15.68H192.06Zm-6.14-6.1-13.21,33.46H188l2.09-5.91h15.63l2,5.91h10.12l-13.3-33.47Zm-26.51,33.47h9.46V137.66h-9.46ZM99.63,137.66,91.74,164.2l-7.56-26.54H74l10.8,33.48H98.4l10.88-33.48ZM137.88,145h4.06c5.9,0,9.72,2.65,9.72,9.52s-3.82,9.52-9.72,9.52h-4.06Zm-9.38-7.29v33.48h15.33c8.18,0,10.85-1.35,13.73-4.4,2-2.14,3.36-6.84,3.36-12,0-4.71-1.12-8.91-3.06-11.52-3.51-4.68-8.56-5.59-16.09-5.59Zm-89.63,0v33.53h9.54V145.68H55.8c2.45,0,4.19.61,5.37,1.87,1.5,1.6,2.11,4.17,2.11,8.87v14.72h9.25V152.62c0-13.23-8.43-15-16.68-15Zm74.4,0v33.48h9.46V137.66Z"/><path class="cls-4" d="M64.29,71a50.83,50.83,0,0,1,36.47-19.81V44.65c-26.91,2.16-50.22,25-50.22,25s13.2,38.16,50.22,41.65v-6.92C73.6,100.92,64.29,71,64.29,71Z"/><path class="cls-4" d="M100.76,90.57v6.34c-20.53-3.66-26.23-25-26.23-25a44.4,44.4,0,0,1,26.23-12.69v7h0c-8.59-1-15.3,7-15.3,7s3.76,13.52,15.33,17.41"/><path class="cls-4" d="M100.76,32.64v12c.79-.06,1.58-.11,2.38-.14,30.59-1,50.53,25.1,50.53,25.1s-22.9,27.84-46.75,27.84a35.31,35.31,0,0,1-6.16-.54v7.43a40.45,40.45,0,0,0,5.13.33c22.2,0,38.25-11.34,53.8-24.76C162.27,82,172.82,87,175,89.2c-14.79,12.37-49.23,22.35-68.76,22.35-1.88,0-3.69-.12-5.47-.29V121.7h84.38V32.64Z"/><path class="cls-4" d="M100.76,59.21v-8c.78-.06,1.57-.1,2.38-.13,22-.69,36.44,18.91,36.44,18.91S124,91.61,107.27,91.61a20.33,20.33,0,0,1-6.51-1V66.17c8.57,1,10.29,4.82,15.44,13.4l11.46-9.65s-8.37-11-22.46-11a42.56,42.56,0,0,0-4.44.26"/></svg>