<svg width="60" height="60" viewBox="0 0 60 60" fill="none" xmlns="http://www.w3.org/2000/svg">
<path d="M41.0922 27.5611C41.0922 31.952 38.5403 35.7468 34.839 37.5429V38.4039L25.1571 40.9987V37.539C21.4558 35.7468 18.9039 31.952 18.9039 27.5611C18.9039 21.4325 23.8714 16.465 30 16.465C36.1247 16.465 41.0922 21.4325 41.0922 27.5611Z" stroke="white" stroke-width="2" stroke-miterlimit="10" stroke-linecap="round" stroke-linejoin="round"/>
<path d="M34.0675 46.8467C34.0675 49.0948 32.2481 50.9142 30.0039 50.9142C28.2701 50.9142 26.7896 49.8311 26.2052 48.3L34.0169 46.2078C34.052 46.4143 34.0675 46.6285 34.0675 46.8467Z" stroke="white" stroke-width="2" stroke-miterlimit="10" stroke-linecap="round" stroke-linejoin="round"/>
<path d="M34.8429 42.4364L25.1571 45.0273" stroke="white" stroke-width="2" stroke-miterlimit="10" stroke-linecap="round" stroke-linejoin="round"/>
<path d="M34.8429 45.9857L25.1571 48.5805" stroke="white" stroke-width="2" stroke-miterlimit="10" stroke-linecap="round" stroke-linejoin="round"/>
<path d="M30 9.08569V13.0597" stroke="white" stroke-width="2" stroke-miterlimit="10" stroke-linecap="round" stroke-linejoin="round"/>
<path d="M16.9675 14.4818L19.7805 17.2948" stroke="white" stroke-width="2" stroke-miterlimit="10" stroke-linecap="round" stroke-linejoin="round"/>
<path d="M11.5714 27.5143H15.5455" stroke="white" stroke-width="2" stroke-miterlimit="10" stroke-linecap="round" stroke-linejoin="round"/>
<path d="M16.9675 40.5429L19.7805 37.7338" stroke="white" stroke-width="2" stroke-miterlimit="10" stroke-linecap="round" stroke-linejoin="round"/>
<path d="M43.0325 40.5429L40.2195 37.7338" stroke="white" stroke-width="2" stroke-miterlimit="10" stroke-linecap="round" stroke-linejoin="round"/>
<path d="M48.4286 27.5143H44.4545" stroke="white" stroke-width="2" stroke-miterlimit="10" stroke-linecap="round" stroke-linejoin="round"/>
<path d="M43.0325 14.4818L40.2195 17.2948" stroke="white" stroke-width="2" stroke-miterlimit="10" stroke-linecap="round" stroke-linejoin="round"/>
<path d="M25.1571 28.2546L28.7494 31.8468L35.7896 24.8065" stroke="white" stroke-width="2" stroke-miterlimit="10" stroke-linecap="round" stroke-linejoin="round"/>
</svg>
