<svg width="60" height="60" viewBox="0 0 60 60" fill="none" xmlns="http://www.w3.org/2000/svg">
<path d="M48.0039 40.5974C48.2766 39.3974 48.3311 38.1974 48.1987 37.0324L50.3844 34.9792L49.6597 33.2415L48.935 31.5039L45.935 31.613C45.1948 30.6896 44.3026 29.8831 43.2701 29.2402L43.0286 26.248L41.2169 25.7299L39.4052 25.2117L37.6208 27.6234C36.4091 27.6234 35.2208 27.8337 34.1065 28.2311L31.6169 26.5558L30.0818 27.6467L28.5467 28.7376L29.3182 31.6363C28.5896 32.5519 28.0013 33.6039 27.6 34.7649L24.7363 35.6649L24.6351 37.5467L24.5338 39.4285L27.2805 40.6324C27.5493 41.8013 28.0169 42.9156 28.6558 43.9247L27.5766 46.726L28.9831 47.9766L30.3896 49.2272L33.0467 47.8285C33.5766 48.0818 34.1338 48.2961 34.7182 48.4636C35.3026 48.6311 35.8909 48.7441 36.4753 48.8065L37.9909 51.3974L39.8454 51.0779L41.7 50.7584L42.261 47.8091C43.3363 47.2909 44.3182 46.5896 45.1675 45.7402L48.1363 46.1688L49.0441 44.5208L49.9519 42.8727L48.0039 40.5974ZM36.1247 43.5584C33.1948 42.7208 31.4961 39.6662 32.3337 36.7363C33.1714 33.8065 36.226 32.1078 39.1558 32.9454C42.0857 33.7831 43.7844 36.8376 42.9467 39.7675C42.113 42.7013 39.0545 44.3961 36.1247 43.5584Z" stroke="#1B92F5" stroke-width="2" stroke-miterlimit="10" stroke-linecap="round" stroke-linejoin="round"/>
<path d="M28.0286 19.7767C28.048 18.8377 27.9078 17.8909 27.6039 16.9754L28.9753 15.0234L28.1299 13.7883L27.2844 12.5533L24.9662 13.1221C24.226 12.5065 23.3922 12.0351 22.5117 11.7078L21.8415 9.41691L20.3493 9.30782L18.8571 9.19873L17.8558 11.3611C16.9441 11.552 16.0519 11.8948 15.2182 12.4013L13.0091 11.4974L11.9922 12.5961L10.9753 13.6948L12.0428 15.826C11.6143 16.6792 11.3338 17.5948 11.2091 18.5377L9.12466 19.7026L9.35064 21.1831L9.57661 22.6637L11.9104 23.1585C12.1052 23.5831 12.3389 23.9961 12.6117 24.3974C12.8844 24.7948 13.1844 25.1611 13.5117 25.5L13.1221 27.8533L14.4195 28.6013L15.7169 29.3494L17.5597 27.8338C18.4792 28.0598 19.4377 28.1338 20.3883 28.0442L21.9857 29.813L23.3766 29.2559L24.7675 28.7065L24.7286 26.3221C25.5039 25.726 26.1506 25.0208 26.6571 24.2416L29.0377 24.0974L29.4779 22.6676L29.9182 21.2377L28.0286 19.7767ZM21.9545 23.0922C20.0377 24.4013 17.4273 23.9065 16.1182 21.9935C14.8091 20.0805 15.3039 17.4663 17.2169 16.1572C19.1338 14.8481 21.7441 15.3429 23.0532 17.2559C24.3623 19.1689 23.8714 21.7831 21.9545 23.0922Z" stroke="#1B92F5" stroke-width="2" stroke-miterlimit="10" stroke-linecap="round" stroke-linejoin="round"/>
</svg>
