<svg width="32" height="32" viewBox="0 0 32 32" fill="none" xmlns="http://www.w3.org/2000/svg">
<g clip-path="url(#clip0)">
<path d="M11.6221 22.7511H8.33535V12.2359H11.6221V22.7511ZM9.97693 10.8015C8.92595 10.8015 8.07349 9.93666 8.07349 8.89252C8.07349 8.39098 8.27403 7.90998 8.63099 7.55534C8.98796 7.2007 9.47211 7.00146 9.97693 7.00146C10.4818 7.00146 10.9659 7.2007 11.3229 7.55534C11.6798 7.90998 11.8804 8.39098 11.8804 8.89252C11.8804 9.93666 11.0276 10.8015 9.97693 10.8015ZM23.9232 22.7511H20.6435V17.6324C20.6435 16.4124 20.6188 14.848 18.9347 14.848C17.2259 14.848 16.964 16.1734 16.964 17.5445V22.7511H13.6809V12.2359H16.8331V13.6703H16.8791C17.3179 12.8441 18.3898 11.9722 19.9889 11.9722C23.3152 11.9722 23.9267 14.1484 23.9267 16.9749V22.7511H23.9232Z" fill="white"/>
</g>
<defs>
<clipPath id="clip0">
<rect width="15.8532" height="18" fill="white" transform="translate(8.07349 7)"/>
</clipPath>
</defs>
</svg>
