<svg width="32" height="32" viewBox="0 0 32 32" fill="none" xmlns="http://www.w3.org/2000/svg">
<path d="M16 32C24.8366 32 32 24.8366 32 16C32 7.16344 24.8366 0 16 0C7.16344 0 0 7.16344 0 16C0 24.8366 7.16344 32 16 32Z" fill="#2867B2"/>
<path d="M11.0297 23.9836H7.296V11.9826H11.0297V23.9836ZM9.164 10.3429C7.966 10.3429 7 9.37385 7 8.1796C7 6.98585 7.966 6.0166 9.164 6.0166C10.3567 6.0166 11.3255 6.9856 11.3255 8.1796C11.3257 9.37385 10.357 10.3429 9.164 10.3429ZM25 23.9836H21.2703V18.1476C21.2703 16.7561 21.246 14.9656 19.3323 14.9656C17.391 14.9656 17.0952 16.4819 17.0952 18.0481V23.9836H13.3698V11.9826H16.945V13.6231H16.996C17.4935 12.6796 18.7102 11.6849 20.5252 11.6849C24.3015 11.6849 24.9995 14.1696 24.9995 17.4019L25 23.9836Z" fill="white"/>
</svg>
