<svg width="32" height="32" viewBox="0 0 32 32" fill="none" xmlns="http://www.w3.org/2000/svg">
<path opacity="0.5" fill-rule="evenodd" clip-rule="evenodd" d="M24 25H9H8H6C6 26.1046 6.89543 27 8 27H24C25.1046 27 26 26.1046 26 25V11.2426C26 10.447 25.6839 9.68393 25.1213 9.12132L21.8787 5.87868C21.3161 5.31607 20.553 5 19.7574 5H8C6.89543 5 6 5.89543 6 7V13H8V7H18V10C18 11.6569 19.3431 13 21 13H24V25ZM20 10V7.02988C20.1743 7.07349 20.3353 7.16369 20.4645 7.29289L23.7071 10.5355C23.8363 10.6647 23.9265 10.8257 23.9701 11H21C20.4477 11 20 10.5523 20 10Z" fill="#017DE9"/>
<rect x="1" y="14" width="18" height="10" rx="2" fill="#017DE9"/>
<path fill-rule="evenodd" clip-rule="evenodd" d="M3 16H5C6.10457 16 7 16.8954 7 18C7 19.1046 6.10457 20 5 20H4V22H3V16ZM4 17V19H5C5.55228 19 6 18.5523 6 18C6 17.4477 5.55228 17 5 17H4Z" fill="white"/>
<path fill-rule="evenodd" clip-rule="evenodd" d="M8 16H10C11.3807 16 12.5 17.1193 12.5 18.5V19.5C12.5 20.8807 11.3807 22 10 22H8V16ZM9 17V21H10C10.8284 21 11.5 20.3284 11.5 19.5V18.5C11.5 17.6716 10.8284 17 10 17H9Z" fill="white"/>
<path fill-rule="evenodd" clip-rule="evenodd" d="M13.5 16H17.5V17H14.5V18.5H16V19.5H14.5V22H13.5V16Z" fill="white"/>
</svg>
