<svg width="32" height="32" viewBox="0 0 32 32" fill="none" xmlns="http://www.w3.org/2000/svg">
<path d="M23.8251 11.9875C23.8377 12.1625 23.8377 12.3375 23.8377 12.5125C23.8377 17.85 19.7752 24 12.3502 24C10.0626 24 7.93765 23.3375 6.15015 22.1875C6.47516 22.225 6.78763 22.2375 7.12514 22.2375C9.01261 22.2375 10.7501 21.6 12.1376 20.5125C10.3626 20.475 8.87514 19.3125 8.36263 17.7125C8.61265 17.75 8.86263 17.775 9.12516 17.775C9.48765 17.775 9.85017 17.725 10.1877 17.6375C8.33766 17.2625 6.95011 15.6375 6.95011 13.675V13.625C7.48759 13.925 8.11265 14.1125 8.7751 14.1375C7.68759 13.4125 6.97512 12.175 6.97512 10.775C6.97512 10.025 7.17509 9.33749 7.52511 8.73748C9.51262 11.1875 12.5001 12.7875 15.8501 12.9625C15.7876 12.6625 15.7501 12.35 15.7501 12.0375C15.7501 9.81248 17.5501 8 19.7876 8C20.9501 8 22.0001 8.4875 22.7376 9.275C23.6501 9.10001 24.5251 8.76249 25.3001 8.3C25.0001 9.23752 24.3626 10.025 23.5251 10.525C24.3376 10.4375 25.1251 10.2125 25.8501 9.90001C25.3002 10.7 24.6126 11.4125 23.8251 11.9875V11.9875Z" fill="white"/>
</svg>
