<svg width="32" height="32" viewBox="0 0 32 32" fill="none" xmlns="http://www.w3.org/2000/svg">
<path d="M16 32C24.8366 32 32 24.8366 32 16C32 7.16344 24.8366 0 16 0C7.16344 0 0 7.16344 0 16C0 24.8366 7.16344 32 16 32Z" fill="#1D9BF0"/>
<path d="M13.0729 24.4395C20.1673 24.4395 24.0473 18.5619 24.0473 13.4651C24.0473 13.2979 24.0441 13.1315 24.0361 12.9667C24.7889 12.4219 25.4441 11.7427 25.9601 10.9699C25.2689 11.2771 24.5249 11.4835 23.7449 11.5771C24.5409 11.0995 25.1529 10.3443 25.4409 9.44353C24.6953 9.88513 23.8705 10.2067 22.9921 10.3795C22.2881 9.62993 21.2857 9.16113 20.1769 9.16113C18.0465 9.16113 16.3193 10.8883 16.3193 13.0179C16.3193 13.3203 16.3529 13.6147 16.4193 13.8971C13.2137 13.7363 10.3713 12.2011 8.46889 9.86753C8.13769 10.4371 7.94649 11.0995 7.94649 11.8059C7.94649 13.1443 8.62729 14.3251 9.66329 15.0163C9.03049 14.9971 8.43609 14.8227 7.91609 14.5339C7.91529 14.5499 7.91529 14.5659 7.91529 14.5827C7.91529 16.4507 9.24489 18.0107 11.0097 18.3643C10.6857 18.4523 10.3449 18.5003 9.99289 18.5003C9.74409 18.5003 9.50249 18.4755 9.26809 18.4307C9.75929 19.9627 11.1833 21.0779 12.8713 21.1099C11.5513 22.1443 9.88809 22.7611 8.08089 22.7611C7.76969 22.7611 7.46249 22.7435 7.16089 22.7075C8.86729 23.8011 10.8937 24.4395 13.0729 24.4395Z" fill="white"/>
</svg>
