<svg width="72" height="72" viewBox="0 0 72 72" fill="none" xmlns="http://www.w3.org/2000/svg">
<path d="M41.9831 20.549L42.0931 20.5803L42.1088 20.549H41.9831ZM43.2818 20.0429L42.6534 20.3038L42.3915 20.3246L42.2659 20.2881L42.1978 20.3403L42.1088 20.5438L42.5696 20.5333L42.6324 20.429L44.8004 20.262L47.7644 20.0951L45.1041 19.9438L44.8894 20.1368L44.5229 20.116L44.4757 20.0534L44.2506 19.9751L43.8264 20.1994H43.5646L43.5017 19.8186L43.2818 20.0429ZM42.3287 12.9792L42.1559 13.1305L41.7213 13.1723L41.6794 13.3183L41.229 13.3392C41.229 13.3392 35.5996 15.5616 28.8862 16.7928C29.059 16.5998 29.2109 16.3911 29.2109 16.3911C29.2109 16.3911 26.7182 16.9858 26.1108 17.5597C25.938 17.3249 25.7652 17.158 25.7652 17.158L25.6133 17.351L25.7652 17.5858L25.6761 17.7892L25.4143 17.8936H25.2415L25.1787 17.7266L24.4874 17.7005L24.4193 18.0605L24.2256 18.1857L23.7072 18.5248L23.5082 18.6761L22.9426 18.6344L22.8326 18.3161C22.8326 18.3161 20.9684 19.8656 19.345 20.3507C21.1831 18.4413 25.0373 15.692 25.0373 15.692L25.0163 15.4625L24.7126 15.4416C24.7126 15.4416 17.6536 20.0168 16.6377 20.9037C17.3289 20.2047 17.9783 19.6934 17.9783 19.6934C17.9783 19.6934 14.9724 21.1959 14.4278 22.6149C14.3178 22.4271 14.276 22.3384 14.276 22.3384C14.276 22.3384 14.9043 21.9158 15.2081 20.9037C15.8365 19.7821 16.8105 18.6761 16.8105 18.6761L15.2081 20.3507L14.6896 20.4551L14.0036 21.535L14.1136 21.6184L13.2024 22.5888L13.3962 22.907L13.3124 23.267L13.0925 23.0583L12.8568 22.6983L9.93477 25.745L9.7829 25.4685L7.64111 27.3518L8.76699 27.0597L5.625 30.0907C5.625 30.0907 9.97666 31.9949 17.1875 28.6926C24.257 25.4581 32.1277 27.7431 32.1277 27.7431C32.1277 27.7431 15.826 29.9655 12.1865 42.6009C8.7827 54.4224 22.1257 59.8793 28.6872 59.9419L37.2177 59.8793C37.2177 59.8793 36.118 59.7488 35.0131 59.368C37.888 59.1802 39.082 58.7994 39.082 58.7994C39.082 58.7994 38.9511 58.8202 38.087 58.5437C43.1561 58.0951 44.4967 57.2969 44.4967 57.2969L43.9783 57.1717V57.0621C43.9783 57.0621 47.7644 56.7022 54.4358 53.4833C50.7964 54.9649 46.6804 55.2623 46.6804 55.2623L47.2669 54.605C47.2669 54.605 47.6544 54.7093 47.8953 54.6258C49.084 54.0102 49.1049 53.1234 49.1049 53.1234C49.1049 53.1234 49.1259 53.8224 49.6495 53.2694C50.257 52.7373 49.7805 52.2939 49.7805 52.2939L49.4348 52.1478C49.4348 52.1478 50.1051 51.4487 50.8016 50.9218C50.4089 50.7497 50.456 50.1549 50.456 50.1549L50.8645 50.1132L50.9744 49.8576L50.6498 49.7324L50.4089 49.5237L50.7807 49.4194C50.7807 49.4194 53.1162 46.0336 56.7138 43.0026C55.2213 43.7434 54.7815 43.9781 54.7815 43.9781C54.7815 43.9781 55.4518 42.8617 60.6046 39.8515C64.0765 37.8222 64.8306 36.0588 64.8306 36.0588C64.8306 36.0588 62.2856 39.7994 58.1382 39.7003C53.7184 39.5959 50.435 40.1802 50.4089 40.1854C50.4298 40.1802 52.4512 39.7994 53.5927 38.683C53.5927 38.683 49.6391 40.0341 47.2931 38.4899C41.9464 34.9737 33.2169 36.5232 33.2169 36.5232C33.2169 36.5232 24.9954 37.5457 23.2987 43.7642C22.0838 48.209 27.2838 49.435 27.2838 49.435C27.2838 49.435 30.6038 50.2071 31.8292 47.1083C32.5623 45.2406 30.9599 44.1398 30.9599 44.1398C30.9599 44.1398 28.2631 41.5418 30.2687 39.3559C32.5205 36.8988 39.3648 38.5056 39.3648 38.5056C39.3648 38.5056 48.6336 40.7541 42.5696 51.4226C38.6264 58.1994 30.054 57.5212 30.054 57.5212C30.054 57.5212 21.3507 57.9021 20.2667 48.9655C19.963 46.2944 20.3557 44.8546 20.3557 44.8546L20.7642 44.5102L20.5861 44.3798V44.2077C20.5861 44.2077 20.6018 44.0303 20.9422 44.0303C21.2826 44.0303 21.1203 43.6495 21.1203 43.6495L20.7485 43.6182C20.7485 43.6182 20.7327 43.2217 21.1045 42.9191C20.9265 42.8721 20.9422 42.773 20.9422 42.773C20.9422 42.773 21.1203 42.3609 21.4921 42.5174C21.5235 43.1069 21.9005 42.6948 21.9005 42.6948C21.9005 42.6948 21.513 42.7574 21.7539 41.9018C22.1624 41.0462 23.461 40.3002 23.461 40.3002C23.461 40.3002 23.2673 40.2845 23.0892 40.0915C24.278 39.7107 24.744 38.7403 24.744 38.7403L24.5503 38.6934C24.5503 38.6934 24.4036 38.8968 24.0999 38.8499C24.1628 38.6099 24.2623 38.5004 24.2623 38.5004L24.0999 38.4691V38.1195L23.6757 38.0882C23.6757 38.0882 23.3668 37.8952 23.6915 37.5613C24.5398 37.3996 24.4717 36.5597 24.4717 36.5597L24.7807 36.6536L24.9901 36.3353L25.1211 35.9858L25.2834 35.8137L25.7861 36.0223L26.0794 36.1632L26.8125 36.784L26.2103 35.7458L26.3412 35.4798L26.4198 35.2241L26.0165 35.1772L26.0008 34.9894L26.4198 34.8277L26.4512 34.7025L26.5716 34.6764L26.6345 34.2955L27.2681 34.2486L27.5613 33.6121C27.5613 33.6121 30.9128 29.0004 38.8359 29.4542C44.8109 29.7933 46.3347 33.3304 53.4723 32.84C57.803 32.5479 58.9708 33.007 58.9708 33.007C58.9708 33.007 56.7662 31.4836 54.4254 31.3584C56.8081 31.228 58.6671 30.9776 58.6671 30.9776L58.3633 30.8211L58.0701 30.6646L57.8449 30.5654L57.5517 30.7585L57.1641 30.7898L56.5462 30.5341L56.253 30.4402L55.9597 30.4715L55.6665 30.8211L55.2423 30.7585L54.0431 30.5341L55.3418 30.4715L55.7293 30.2159L56.0226 30.0594H56.4205L56.452 30.2785L57.1013 30.3411L57.3946 30.5289L57.8187 30.3411L58.2429 30.4663L58.5676 30.3411L58.8922 30.1794L59.1227 30.1168L59.4787 30.2107L60.0653 29.7047L60.3585 29.6734L60.5523 29.9916L60.7198 30.122L60.5523 30.3724H60.8769L60.9764 29.9603L60.9136 29.7986L61.3692 29.6734H61.8562L61.919 29.9916L62.0814 29.7986L62.1128 29.5794L62.537 29.2977L64.1603 28.4369L64.7102 28.2752L64.972 28.0874L66.1764 27.957C66.1764 27.957 67.8364 27.4509 69.198 25.7346C69.198 25.7346 63.8356 29.1308 55.8497 27.2892C50.2832 26.0059 49.3877 24.6547 49.3877 24.6547L49.8119 24.493L49.1625 24.3051L48.8379 24.1486L48.2514 24.2112L47.7958 23.8617H46.9213L46.7903 23.6374L45.9158 23.5748L45.8163 23.4131L47.5706 23.3818L47.9581 23.7365L48.3823 23.6687L48.9007 23.9243L49.1311 23.9556L49.4244 24.1486H50.0109L50.2046 24.3991L50.0423 24.5921L50.3355 24.9103L50.7283 25.0042V24.5921L50.4979 24.3365L50.7283 23.9869H50.4036L50.2413 23.8565L50.1732 23.2826L49.7857 23.1887C49.7857 23.1887 43.8054 19.6308 38.8725 21.6654C38.8725 21.6654 39.1658 21.3159 39.7051 21.1228C39.857 21.102 39.747 20.9507 39.747 20.9507L39.878 20.8881L40.5692 20.9298L40.5011 20.7837L41.4961 20.7629L41.4332 20.549L41.9988 20.5385L41.4123 20.3768L41.1662 20.6898L40.9672 20.4707L40.6739 20.3768L40.7211 20.7107L40.3702 20.6324L39.9356 20.7576L39.6318 20.8203L39.281 20.7576L39.26 20.5646L38.8725 20.8203L38.6526 20.7785L38.3488 20.7368L38.307 20.1838L38.8463 19.8656C38.8463 19.8656 34.4528 19.6986 30.4467 21.222C26.4407 22.7453 26.0322 23.4444 21.5706 24.3573C25.0111 23.2774 27.0272 21.9419 28.0641 21.3054C30.9442 19.6986 36.9873 16.4798 39.0401 15.2903C39.0767 15.0764 39.1396 15.0764 39.1396 15.0764L39.3805 15.2225L39.7051 14.8625L40.0508 14.7791V14.6539L40.5901 14.633L40.6111 14.44L40.8729 14.4608L40.9358 14.2678L41.3913 14.1426L40.852 14.08L40.831 13.9339L41.3913 13.8922L41.4594 13.7253L41.737 13.8713L42.2135 13.3653L42.6062 13.3027L42.8262 12.9375L42.3287 12.9792Z" fill="#E41E26"/>
</svg>
