<svg width="72" height="72" viewBox="0 0 72 72" fill="none" xmlns="http://www.w3.org/2000/svg">
<mask id="mask0" mask-type="alpha" maskUnits="userSpaceOnUse" x="12" y="12" width="48" height="48">
<path d="M36 60C49.2548 60 60 49.2548 60 36C60 22.7452 49.2548 12 36 12C22.7452 12 12 22.7452 12 36C12 49.2548 22.7452 60 36 60Z" fill="#C4C4C4"/>
</mask>
<g mask="url(#mask0)">
<path d="M63.4808 10.1719H8.73486V52.7057H63.4808V10.1719Z" fill="#FF5722"/>
<path d="M73.6014 27.6197C69.3198 25.872 65.1955 25.0347 61.733 24.6691C61.0675 24.5813 59.4368 24.4095 57.1443 24.4168C54.8555 24.4095 53.2211 24.5813 52.5557 24.6691C49.0931 25.0347 44.9688 25.872 40.6873 27.6197C36.563 29.3016 32.5849 30.1426 29.1992 30.5301V30.5265C29.1992 30.5265 29.1553 30.5338 29.0675 30.5448C27.2686 30.7459 25.6416 30.819 24.2558 30.8263C22.8701 30.819 21.243 30.7459 19.4441 30.5448C19.36 30.5338 19.3125 30.5265 19.3125 30.5265V30.5301C15.9304 30.1426 11.9524 29.3053 7.8244 27.6197C3.54286 25.872 -0.581454 25.0347 -4.04398 24.6691C-4.70943 24.5813 -6.34014 24.4095 -8.63264 24.4168C-10.9215 24.4095 -12.5559 24.5813 -13.2213 24.6691C-16.6838 25.0347 -20.8081 25.872 -25.0897 27.6197C-36.3072 32.2047 -46.4498 30.5228 -46.4498 30.5228V61.4223H94.9725V30.5228C94.9725 30.5228 84.8299 32.2047 73.6014 27.6197Z" fill="#00A54A"/>
<path d="M97.5283 27.6197C93.2468 25.872 89.1225 25.0347 85.66 24.6691C84.9945 24.5813 83.3638 24.4095 81.0713 24.4168C78.7824 24.4095 77.1481 24.5813 76.4826 24.6691C73.0201 25.0347 68.8958 25.872 64.6143 27.6197C60.4899 29.3016 56.5119 30.1426 53.1261 30.5301V30.5265C53.1261 30.5265 53.0823 30.5338 52.9945 30.5448C51.1956 30.7459 49.5686 30.819 48.1828 30.8263C46.7971 30.819 45.17 30.7459 43.3711 30.5448C43.2834 30.5338 43.2395 30.5265 43.2395 30.5265V30.5301C39.8574 30.1426 35.8793 29.3053 31.7514 27.6197C27.4698 25.872 23.3455 25.0347 19.883 24.6691C19.2176 24.5813 17.5868 24.4095 15.2943 24.4168C13.0055 24.4095 11.3711 24.5813 10.7057 24.6691C7.24315 25.0347 3.11883 25.872 -1.1627 27.6197C-12.3912 32.2047 -22.5338 30.5228 -22.5338 30.5228V61.4223H118.888V30.5228C118.903 30.5228 108.761 32.2047 97.5283 27.6197Z" fill="#00E8FF"/>
<path d="M7.44423 18.2121C11.7258 19.9598 15.8501 20.7971 19.3126 21.1627C19.9781 21.2505 21.6088 21.4223 23.9013 21.415C26.1901 21.4223 27.8245 21.2505 28.4899 21.1627C31.9525 20.7971 36.0768 19.9598 40.3583 18.2121C44.4826 16.5302 48.4607 15.6892 51.8464 15.3017V15.3053C51.8464 15.3053 51.8903 15.298 51.9781 15.2871C53.777 15.086 55.404 15.0128 56.7898 15.0055C58.1755 15.0128 59.8026 15.086 61.6015 15.2871C61.6855 15.298 61.7331 15.3053 61.7331 15.3053V15.3017C65.1152 15.6892 69.0932 16.5265 73.2212 18.2121C77.5027 19.9598 81.6271 20.7971 85.0896 21.1627C85.755 21.2505 87.3857 21.4223 89.6782 21.415C91.9671 21.4223 93.6014 21.2505 94.2669 21.1627C97.7294 20.7971 101.854 19.9598 106.135 18.2121C117.364 13.6271 127.506 15.309 127.506 15.309V-15.5941H-13.9269V15.3053C-13.9269 15.3053 -3.78428 13.6271 7.44423 18.2121Z" fill="#E41E26"/>
<path d="M75.3784 37.8794C71.0969 36.1316 66.9726 35.2943 63.5101 34.9287C62.8446 34.841 61.2139 34.6691 58.9214 34.6764C56.6326 34.6691 54.9982 34.841 54.3327 34.9287C50.8702 35.2943 46.7459 36.1316 42.4644 37.8794C38.34 39.5613 34.362 40.4022 30.9762 40.7898V40.7861C30.9762 40.7861 30.9324 40.7934 30.8446 40.8044C29.0457 41.0055 27.4187 41.0786 26.0329 41.0859C24.6472 41.0786 23.0201 41.0055 21.2212 40.8044C21.1371 40.7934 21.0896 40.7861 21.0896 40.7861V40.7898C17.7075 40.4022 13.7294 39.5649 9.60147 37.8794C5.31994 36.1316 1.19562 35.2943 -2.2669 34.9287C-2.93235 34.841 -4.56306 34.6691 -6.85557 34.6764C-9.14441 34.6691 -10.7788 34.841 -11.4442 34.9287C-14.9068 35.2943 -19.0311 36.1316 -23.3126 37.8794C-34.5411 42.4644 -44.6837 40.7825 -44.6837 40.7825V71.6819H96.7386V40.7861C96.7532 40.7861 86.6106 42.4644 75.3784 37.8794Z" fill="#478EF7"/>
<path d="M97.2175 49.1554C92.936 47.4077 88.8117 46.5704 85.3492 46.2048C84.6837 46.117 83.053 45.9452 80.7605 45.9525C78.4717 45.9452 76.8373 46.117 76.1718 46.2048C72.7093 46.5704 68.585 47.4077 64.3035 49.1554C60.1792 50.8373 56.2011 51.6783 52.8154 52.0658V52.0622C52.8154 52.0622 52.7715 52.0695 52.6837 52.0805C50.8848 52.2816 49.2578 52.3547 47.872 52.362C46.4863 52.3547 44.8592 52.2816 43.0603 52.0805C42.9762 52.0695 42.9287 52.0622 42.9287 52.0622V52.0658C39.5466 51.6783 35.5686 50.841 31.4406 49.1554C27.159 47.4077 23.0347 46.5704 19.5722 46.2048C18.9068 46.117 17.2761 45.9452 14.9835 45.9525C12.6947 45.9452 11.0603 46.117 10.3949 46.2048C6.93236 46.5704 2.80805 47.4077 -1.47349 49.1554C-12.702 53.7404 -22.8446 52.0585 -22.8446 52.0585V82.958H118.578V52.0585C118.589 52.0622 108.446 53.7404 97.2175 49.1554Z" fill="#000084"/>
</g>
</svg>
