<svg width="72" height="72" viewBox="0 0 72 72" fill="none" xmlns="http://www.w3.org/2000/svg">
<path d="M49.1584 17.2328C45.5488 14.5715 41.0951 13 36.2771 13C24.2271 13 14.4581 22.8307 14.4581 34.9568C14.4581 39.2303 15.6714 43.218 17.77 46.5915C20.9406 45.1084 24.4747 44.2809 28.2008 44.2809C32.4351 44.2809 36.4211 45.3499 39.9072 47.2341C39.9353 47.2499 39.9634 47.2651 39.9916 47.2803C42.226 48.4839 44.7793 49.1665 47.4904 49.1665C49.8092 49.1665 52.0114 48.6675 53.9982 47.7703C56.5776 44.1642 58.0968 39.7389 58.0968 34.9568C58.0961 27.679 54.5778 21.2281 49.1584 17.2328ZM40.5958 38.284C40.5958 38.5856 40.3502 38.8327 40.0505 38.8327H32.5044C32.2046 38.8327 31.9591 38.5856 31.9591 38.284V30.6909C31.9591 30.3893 32.2046 30.1422 32.5044 30.1422H40.0498C40.3496 30.1422 40.5951 30.3893 40.5951 30.6909V38.284H40.5958Z" fill="#060083"/>
<path d="M57.3815 51.4392C54.5298 53.0052 51.2708 53.9148 47.8053 53.9673C47.701 53.9693 47.5954 53.97 47.4905 53.97C47.3938 53.97 47.2978 53.9693 47.2017 53.968C46.4631 53.9576 45.7334 53.9086 45.0153 53.8223C42.4112 53.5097 39.9566 52.7105 37.7421 51.5172C37.7304 51.511 37.7188 51.5048 37.7071 51.4979C37.6811 51.4834 37.6543 51.4696 37.6282 51.4551C37.6255 51.4537 37.6228 51.4523 37.6193 51.4502C35.7203 50.4281 33.6388 49.7062 31.4359 49.3453C30.3825 49.1727 29.3016 49.0837 28.2008 49.0837C27.9862 49.0837 27.7729 49.0871 27.5603 49.094C25.1983 49.1686 22.9392 49.6558 20.8522 50.4861C19.3708 51.0755 17.9751 51.8381 16.6919 52.7484L16.6913 52.7471C16.4615 52.9244 16.1741 53.03 15.8621 53.03C15.109 53.03 14.4987 52.4158 14.4987 51.658C14.4987 51.2039 14.7181 50.8015 15.0556 50.5517C15.0562 50.5517 15.0562 50.551 15.0569 50.5503C15.0706 50.5406 15.0844 50.5309 15.0981 50.5213C15.0988 50.5206 15.0994 50.5206 15.1001 50.5199C16.3044 49.6634 17.5952 48.9222 18.9565 48.3114C20.1225 47.7882 21.3412 47.361 22.601 47.0394C22.8809 46.9683 23.1627 46.9021 23.446 46.8413C24.1977 46.6805 24.963 46.5563 25.7401 46.4721C26.548 46.3845 27.3696 46.3396 28.2008 46.3396C28.4429 46.3396 28.6837 46.3437 28.9237 46.3513C29.8681 46.381 30.7974 46.4687 31.7095 46.6108C34.2787 47.0111 36.7051 47.8448 38.9142 49.0347C38.9567 49.0575 38.9985 49.0802 39.0411 49.1037C40.9209 50.1148 43.0003 50.7987 45.2046 51.0803C45.9535 51.1763 46.7169 51.2253 47.4912 51.2253C48.8285 51.2253 50.1323 51.0782 51.3867 50.7987C53.0429 50.4302 54.6128 49.8311 56.0627 49.0374C56.0695 49.0333 56.0764 49.0298 56.0825 49.0264C56.0887 49.0229 56.0956 49.0195 56.1017 49.016C56.2924 48.9139 56.5098 48.8559 56.7409 48.8559C57.494 48.8559 58.1044 49.4702 58.1044 50.228C58.1044 50.7525 57.8115 51.2087 57.3815 51.4392Z" fill="#498FF6"/>
<path d="M51.8043 57.2207C51.8043 57.9129 51.2948 58.4858 50.6329 58.5796C50.6322 58.5796 50.6316 58.5796 50.6309 58.5796C50.6295 58.5796 50.6274 58.5803 50.6261 58.5803C50.6254 58.5803 50.6247 58.5803 50.624 58.581C50.6233 58.581 50.6226 58.581 50.622 58.581C50.6206 58.581 50.6185 58.5817 50.6172 58.5817C50.6124 58.5824 50.6076 58.5831 50.6028 58.5838C50.598 58.5844 50.5932 58.5851 50.5877 58.5851C50.5849 58.5858 50.5829 58.5858 50.5808 58.5858C49.8696 58.6728 49.1495 58.7294 48.4218 58.7556C48.1132 58.7666 47.8032 58.7729 47.4918 58.7729C46.7354 58.7729 45.9864 58.7397 45.2464 58.6749C44.3158 58.5927 43.3995 58.4609 42.5004 58.2808C40.8798 57.9571 39.3154 57.4781 37.8216 56.8604C37.013 56.5257 36.225 56.1509 35.4603 55.7375C35.4336 55.7223 35.4061 55.7079 35.3794 55.6934C33.241 54.5415 30.7974 53.8879 28.2022 53.8879C27.3154 53.8879 26.4465 53.9638 25.6015 54.1101C24.212 54.351 22.887 54.781 21.6539 55.3731L21.6525 55.3704C21.4715 55.4601 21.2671 55.5105 21.0511 55.5105C20.298 55.5105 19.6876 54.8962 19.6876 54.1384C19.6876 53.6222 19.9709 53.1729 20.3899 52.9382C20.3899 52.9382 20.3899 52.9382 20.3906 52.9382C20.4228 52.9224 20.4558 52.9065 20.4887 52.8906C20.5065 52.8823 20.5243 52.8734 20.5429 52.8651C20.5429 52.8651 20.5429 52.8651 20.5435 52.8651C21.2012 52.5524 21.8809 52.2791 22.5798 52.0472C24.3485 51.4606 26.2393 51.1431 28.2036 51.1431C28.6082 51.1431 29.0094 51.1569 29.4072 51.1832C32.0161 51.3571 34.4734 52.0914 36.6598 53.2681C36.6941 53.2868 36.7284 53.3054 36.7627 53.324C38.6632 54.3503 40.7261 55.1129 42.9023 55.5615C43.1053 55.6036 43.309 55.643 43.514 55.6789C44.5764 55.868 45.6634 55.9818 46.771 56.017C47.0111 56.0246 47.2518 56.0288 47.4932 56.0288C48.0652 56.0288 48.6331 56.0074 49.1947 55.9653C49.587 55.9363 49.9766 55.897 50.3627 55.848L50.3634 55.8514C50.3895 55.8493 50.4162 55.8486 50.443 55.8486C51.1933 55.8486 51.8043 56.4629 51.8043 57.2207Z" fill="#498FF6"/>
</svg>
