<svg width="72" height="72" viewBox="0 0 72 72" fill="none" xmlns="http://www.w3.org/2000/svg">
<path d="M51.1807 59.2334C53.2733 59.1775 54.9694 57.501 55.1481 55.4222L55.1615 55.1716L56.6439 25.553C56.6453 25.5384 56.6453 25.5237 56.6453 25.5077C56.6453 25.0267 56.2515 24.6362 55.7663 24.6362C55.7623 24.6362 55.7569 24.6362 55.7529 24.6362H46.2457C46.0118 18.5169 41.574 13.6355 36.135 13.6355C30.696 13.6355 26.2596 18.5169 26.0257 24.6375H16.4916C16.0132 24.6455 15.6288 25.0333 15.6288 25.5091C15.6288 25.5317 15.6301 25.5544 15.6315 25.577L16.9835 55.0784L17.0037 55.4488C17.2106 57.5024 18.7226 59.1548 20.7802 59.2308L51.0275 59.2348L51.1807 59.2334ZM36.135 16.2981C40.0984 16.2981 43.3279 20.0014 43.4798 24.6375H28.7916C28.9421 20.0014 32.173 16.2981 36.135 16.2981Z" fill="#EF4F2C"/>
<path d="M43.6882 47.7849C43.4167 49.9877 42.0606 51.7535 39.9614 52.637C38.7921 53.1287 37.2264 53.3939 35.9832 53.3099C34.0519 53.2366 32.2362 52.7742 30.563 51.928C29.9542 51.6202 29.0618 51.0125 28.3885 50.4555C28.2353 50.3289 28.156 50.2156 28.3038 50.0104C28.461 49.7759 29.0833 48.8857 29.1814 48.7378C29.3131 48.5379 29.5308 48.5272 29.7297 48.6818C29.7566 48.7031 29.9596 48.8577 29.9999 48.8883C31.61 50.1303 33.6864 51.0632 35.9953 51.1498C38.9063 51.1111 41.0177 49.8252 41.394 47.8356C41.8093 45.6421 40.0447 43.7605 36.6445 42.7117C35.5639 42.3785 32.8464 41.3071 32.3451 41.0166C29.977 39.648 28.8736 37.8543 29.0309 35.6449C29.2715 32.5839 32.1529 30.2891 35.8112 30.2744C37.5476 30.2704 39.1751 30.6502 40.6253 31.2526C41.1588 31.4738 42.1534 32.0015 42.5082 32.2627C42.7555 32.4413 42.7367 32.6425 42.6385 32.7971C42.4947 33.0343 42.0647 33.6979 41.8913 33.9738C41.765 34.163 41.6091 34.1857 41.386 34.0457C39.5152 32.8091 37.5919 32.3893 35.8596 32.3546C33.3611 32.404 31.4769 33.8658 31.3533 35.8701C31.321 37.6811 32.7174 38.995 35.6822 39.9985C41.808 41.9388 44.1277 44.2149 43.6882 47.7849Z" fill="white"/>
</svg>
