<svg width="96" height="96" viewBox="0 0 96 96" fill="none" xmlns="http://www.w3.org/2000/svg">
<path opacity="0.5" fill-rule="evenodd" clip-rule="evenodd" d="M20.5 37.5C19.6716 37.5 19 38.1716 19 39C19 39.8284 19.6716 40.5 20.5 40.5H36.5C37.3284 40.5 38 39.8284 38 39C38 38.1716 37.3284 37.5 36.5 37.5H20.5ZM59.5 37.5C58.6716 37.5 58 38.1716 58 39C58 39.8284 58.6716 40.5 59.5 40.5H75.5C76.3284 40.5 77 39.8284 77 39C77 38.1716 76.3284 37.5 75.5 37.5H59.5ZM19 48C19 47.1716 19.6716 46.5 20.5 46.5H36.5C37.3284 46.5 38 47.1716 38 48C38 48.8284 37.3284 49.5 36.5 49.5H20.5C19.6716 49.5 19 48.8284 19 48ZM59.5 46.5C58.6716 46.5 58 47.1716 58 48C58 48.8284 58.6716 49.5 59.5 49.5H75.5C76.3284 49.5 77 48.8284 77 48C77 47.1716 76.3284 46.5 75.5 46.5H59.5ZM19 57C19 56.1716 19.6716 55.5 20.5 55.5H36.5C37.3284 55.5 38 56.1716 38 57C38 57.8284 37.3284 58.5 36.5 58.5H20.5C19.6716 58.5 19 57.8284 19 57ZM59.5 55.5C58.6716 55.5 58 56.1716 58 57C58 57.8284 58.6716 58.5 59.5 58.5H75.5C76.3284 58.5 77 57.8284 77 57C77 56.1716 76.3284 55.5 75.5 55.5H59.5Z" fill="white"/>
<path fill-rule="evenodd" clip-rule="evenodd" d="M10.0001 28H38.0001C42.6945 28 46.5001 31.8056 46.5001 36.5V71.5C46.5001 72.3284 47.1717 73 48.0001 73C48.8285 73 49.5001 72.3284 49.5001 71.5V36.5C49.5001 31.8056 53.3057 28 58.0001 28H86.0001V63.5C86.0001 65.9853 83.9854 68 81.5001 68H54.5001C53.6717 68 53.0001 68.6716 53.0001 69.5C53.0001 70.3284 53.6717 71 54.5001 71H81.5001C85.6422 71 89.0001 67.6421 89.0001 63.5V27.5C89.0001 26.1193 87.8808 25 86.5001 25H58.0001C53.7158 25 49.9788 27.3428 48.0001 30.8171C46.0214 27.3428 42.2843 25 38.0001 25H9.50009C8.11938 25 7.00009 26.1193 7.00009 27.5V63.5C7.00009 67.6421 10.358 71 14.5001 71H41.5001C42.3285 71 43.0001 70.3284 43.0001 69.5C43.0001 68.6716 42.3285 68 41.5001 68H14.5001C12.0148 68 10.0001 65.9853 10.0001 63.5V28ZM8.20009 72.6C7.70303 71.9373 6.76283 71.8029 6.10009 72.3C5.43735 72.7971 5.30303 73.7373 5.80009 74.4C7.59891 76.7984 10.8545 78.5 14.5001 78.5H41.7269C41.8513 78.5 41.9712 78.5464 42.0632 78.63L45.6457 81.8869C46.9807 83.1005 49.0195 83.1005 50.3544 81.8869L53.937 78.63C54.029 78.5464 54.1489 78.5 54.2733 78.5H81.5001C85.1457 78.5 88.4013 76.7984 90.2001 74.4C90.6971 73.7373 90.5628 72.7971 89.9001 72.3C89.2373 71.8029 88.2971 71.9373 87.8001 72.6C86.5989 74.2016 84.2545 75.5 81.5001 75.5H54.2733C53.4026 75.5 52.5632 75.8245 51.9189 76.4102L48.3364 79.667C48.1457 79.8404 47.8545 79.8404 47.6638 79.667L44.0812 76.4102C43.437 75.8245 42.5976 75.5 41.7269 75.5H14.5001C11.7457 75.5 9.40127 74.2016 8.20009 72.6Z" fill="white"/>
</svg>
