<svg width="96" height="96" viewBox="0 0 96 96" fill="none" xmlns="http://www.w3.org/2000/svg">
<path fill-rule="evenodd" clip-rule="evenodd" d="M76 27H10V72H62V75H10H7H4V76C4 77.6569 5.34315 79 7 79H62V82H7C3.68629 82 1 79.3137 1 76V75V72H4H7V27C7 25.3431 8.34315 24 10 24H76C77.6569 24 79 25.3431 79 27V37H76V27ZM92 43H68V68H92V43ZM92 71H68V79H92V71ZM68 40C66.3431 40 65 41.3431 65 43V79C65 80.6569 66.3431 82 68 82H92C93.6569 82 95 80.6569 95 79V43C95 41.3431 93.6569 40 92 40H68ZM76 47.5C76 46.6716 76.6716 46 77.5 46H82.5C83.3284 46 84 46.6716 84 47.5C84 48.3284 83.3284 49 82.5 49H77.5C76.6716 49 76 48.3284 76 47.5ZM80 77C81.1046 77 82 76.1046 82 75C82 73.8954 81.1046 73 80 73C78.8954 73 78 73.8954 78 75C78 76.1046 78.8954 77 80 77Z" fill="white"/>
<path opacity="0.5" fill-rule="evenodd" clip-rule="evenodd" d="M22.5 40C21.6716 40 21 40.6716 21 41.5C21 42.3284 21.6716 43 22.5 43H54.5C55.3284 43 56 42.3284 56 41.5C56 40.6716 55.3284 40 54.5 40H22.5ZM22.5 51C21.6716 51 21 51.6716 21 52.5C21 53.3284 21.6716 54 22.5 54H42.5C43.3284 54 44 53.3284 44 52.5C44 51.6716 43.3284 51 42.5 51H22.5Z" fill="white"/>
</svg>
