<svg width="96" height="96" viewBox="0 0 96 96" fill="none" xmlns="http://www.w3.org/2000/svg">
<path fill-rule="evenodd" clip-rule="evenodd" d="M13 25H83C84.1046 25 85 25.8954 85 27C85 28.1046 84.1046 29 83 29H13C11.8954 29 11 28.1046 11 27C11 25.8954 11.8954 25 13 25ZM8 27C8 24.2386 10.2386 22 13 22H83C85.7614 22 88 24.2386 88 27C88 29.7614 85.7614 32 83 32H13C10.2386 32 8 29.7614 8 27ZM13 71V35H16V71H80V35H83V71C83 72.6569 81.6569 74 80 74H50V79H65.5C66.3284 79 67 79.6716 67 80.5C67 81.3284 66.3284 82 65.5 82H30.5C29.6716 82 29 81.3284 29 80.5C29 79.6716 29.6716 79 30.5 79H47V74H16C14.3431 74 13 72.6569 13 71Z" fill="white"/>
<path opacity="0.5" fill-rule="evenodd" clip-rule="evenodd" d="M44 45.5C44 46.8807 42.8807 48 41.5 48C40.1193 48 39 46.8807 39 45.5C39 44.1193 40.1193 43 41.5 43C42.8807 43 44 44.1193 44 45.5ZM44.1817 50.303C43.3884 50.747 42.4737 51 41.5 51C40.396 51 39.368 50.6747 38.5065 50.1148L32.7111 55.9102C32.8978 56.4045 33 56.9403 33 57.5C33 59.9853 30.9853 62 28.5 62C26.0147 62 24 59.9853 24 57.5C24 55.0147 26.0147 53 28.5 53C29.3266 53 30.1012 53.2229 30.7669 53.6118L36.5268 47.8519C36.189 47.1388 36 46.3415 36 45.5C36 42.4624 38.4624 40 41.5 40C44.5376 40 47 42.4624 47 45.5C47 46.4737 46.747 47.3884 46.303 48.1817L52.212 54.0906C53.1291 53.4056 54.2672 53 55.5 53C56.4737 53 57.3884 53.253 58.1817 53.697L63.8069 48.0718C63.2983 47.3429 63 46.4563 63 45.5C63 43.0147 65.0147 41 67.5 41C69.9853 41 72 43.0147 72 45.5C72 47.9853 69.9853 50 67.5 50C67.0796 50 66.6727 49.9424 66.2868 49.8346L60.303 55.8183C60.747 56.6116 61 57.5263 61 58.5C61 61.5376 58.5376 64 55.5 64C52.4624 64 50 61.5376 50 58.5C50 57.7934 50.1332 57.1179 50.376 56.4973L44.1817 50.303ZM67.5 47C68.3284 47 69 46.3284 69 45.5C69 44.6716 68.3284 44 67.5 44C66.6716 44 66 44.6716 66 45.5C66 46.3284 66.6716 47 67.5 47ZM28.5 59C29.3284 59 30 58.3284 30 57.5C30 56.6716 29.3284 56 28.5 56C27.6716 56 27 56.6716 27 57.5C27 58.3284 27.6716 59 28.5 59ZM55.5 61C56.8807 61 58 59.8807 58 58.5C58 57.1193 56.8807 56 55.5 56C54.1193 56 53 57.1193 53 58.5C53 59.8807 54.1193 61 55.5 61Z" fill="white"/>
</svg>
